<svg width="85" height="24" viewBox="0 0 85 24" fill="none" xmlns="http://www.w3.org/2000/svg">
<g id="Company logo" clip-path="url(#clip0_297_10636)">
<path id="Vector" d="M83.6779 10.1685C84.1719 10.6925 84.4204 11.403 84.4204 12.3031V17.0385H82.588V12.84C82.588 12.3096 82.4382 11.8916 82.1386 11.5862C81.8391 11.2808 81.4343 11.1265 80.9212 11.1265C80.3157 11.1362 79.8345 11.3451 79.4808 11.7502C79.127 12.1553 78.9486 12.676 78.9486 13.3094V17.0385H77.1289V6.51651H78.9486V10.8983C79.4617 9.9049 80.3635 9.40018 81.651 9.38089C82.5051 9.38089 83.1839 9.64129 83.6779 10.1685ZM73.0815 11.0108C72.476 11.0108 71.9821 11.2197 71.606 11.6345C71.23 12.0524 71.0387 12.5892 71.0387 13.2515C71.0387 13.933 71.23 14.4795 71.606 14.8975C71.9852 15.3122 72.476 15.5211 73.0847 15.5211C73.9802 15.5211 74.6527 15.2222 75.102 14.6274L76.2365 15.579C75.9019 16.0709 75.443 16.4631 74.9076 16.7138C74.3563 16.9774 73.7189 17.1092 72.9891 17.1092C72.2529 17.1092 71.5964 16.9485 71.0228 16.627C70.4587 16.3152 69.9935 15.8426 69.6875 15.2736C69.3688 14.6917 69.2095 14.023 69.2095 13.2676C69.2095 12.5024 69.372 11.8241 69.6939 11.239C70.003 10.6636 70.4715 10.1942 71.0387 9.87918C71.6124 9.5577 72.2721 9.39696 73.021 9.39696C73.703 9.39696 74.3117 9.51591 74.8471 9.75702C75.3825 9.99813 75.8191 10.3421 76.1569 10.7858L75.051 11.8498C74.5379 11.2905 73.8846 11.0108 73.0815 11.0108ZM68.0463 9.45162V17.0385H66.2266V15.833C65.9684 16.238 65.6083 16.5692 65.1845 16.791C64.7606 17.0128 64.273 17.1253 63.7217 17.1253C63.011 17.1253 62.3896 16.9614 61.851 16.6367C61.3156 16.312 60.8949 15.8523 60.5985 15.2607C60.3022 14.6692 60.1524 13.9909 60.1524 13.2258C60.1524 12.4703 60.3022 11.8016 60.6017 11.2197C60.8981 10.6379 61.3188 10.1878 61.8542 9.86632C62.3896 9.54484 63.0078 9.3841 63.7089 9.3841C64.2603 9.3841 64.751 9.49662 65.1781 9.71844C65.6051 9.94026 65.9684 10.2682 66.2266 10.6764V9.45804L68.0463 9.45162ZM65.5669 15.0164C65.9493 14.6435 66.1692 14.1484 66.2266 13.5344V12.9975C66.1692 12.3803 65.9525 11.8884 65.5701 11.5155C65.1876 11.1426 64.7032 10.9561 64.1137 10.9561C63.489 10.9561 62.9791 11.1715 62.5871 11.6023C62.1952 12.0331 61.9944 12.5892 61.9848 13.2676C61.9944 13.9491 62.1952 14.502 62.5871 14.9328C62.9791 15.3636 63.489 15.579 64.1137 15.579C64.7 15.579 65.1845 15.3925 65.5669 15.0164ZM58.3199 10.4289C58.9222 11.1201 59.2218 12.0877 59.2218 13.3351C59.2218 13.5794 59.2154 13.7659 59.2091 13.888H53.6798C53.8009 14.4281 54.0495 14.8492 54.4287 15.1579C54.8048 15.4665 55.2701 15.6176 55.8214 15.6176C56.1975 15.6176 56.5735 15.5436 56.9209 15.3958C57.2683 15.2543 57.5806 15.0389 57.8387 14.7657L58.8171 15.8008C58.4378 16.222 57.9726 16.5499 57.4499 16.7653C56.9145 16.9935 56.3186 17.106 55.6653 17.106C54.9004 17.106 54.2248 16.9453 53.6416 16.6238C53.0711 16.3152 52.5995 15.8426 52.2904 15.2704C51.9717 14.6885 51.8155 14.0198 51.8155 13.2644C51.8155 12.5089 51.9749 11.837 52.2999 11.2519C52.6122 10.6764 53.0807 10.2007 53.6512 9.8824C54.2312 9.55449 54.8877 9.39375 55.6238 9.39375C56.8189 9.39375 57.7176 9.74095 58.3199 10.4289ZM57.5583 12.6568C57.5391 12.0974 57.3575 11.6537 57.0133 11.3226C56.6691 10.9915 56.2102 10.8243 55.6398 10.8243C55.1075 10.8243 54.6614 10.9883 54.3013 11.313C53.9412 11.6377 53.7213 12.0845 53.6352 12.6535H57.5583V12.6568ZM49.8365 9.78595C50.2699 9.52555 50.7766 9.39053 51.3566 9.38089V11.1683C50.5822 11.1201 49.9639 11.3033 49.5018 11.7148C49.0397 12.1263 48.8071 12.6825 48.8071 13.3801V17.0385H46.9874V9.45162H48.8071V10.9111C49.062 10.4193 49.403 10.0431 49.8365 9.78595ZM45.6234 16.5692C45.0275 16.9389 44.3996 17.1221 43.7463 17.1221C43.1026 17.1221 42.5736 16.9292 42.1656 16.5467C41.7545 16.1641 41.5506 15.5983 41.5506 14.8525V7.67705L43.3575 7.45845V9.76023H45.4991V11.1072H43.3575V14.5278C43.3575 14.8782 43.4213 15.1257 43.5519 15.2704C43.6826 15.4183 43.877 15.489 44.1383 15.489C44.4188 15.489 44.7725 15.3861 45.2027 15.1772L45.6234 16.5692ZM38.1789 9.45162H39.9858V13.7048C39.9858 16.1866 38.2745 17.1092 36.5376 17.1092C34.8008 17.1092 33.0926 16.1866 33.0926 13.7048V9.45162H34.8996V13.7691C34.8996 14.7207 35.6007 15.4922 36.5408 15.4922C37.4809 15.4922 38.1821 14.7207 38.1821 13.7691L38.1789 9.45162ZM29.348 7.65133C30.1288 8.0789 30.7789 8.71221 31.2315 9.48055C31.6904 10.2553 31.9167 11.1169 31.9167 12.062C31.9167 13.0072 31.6872 13.8687 31.2315 14.6499C30.7789 15.4247 30.1288 16.0644 29.348 16.5016C28.5481 16.9549 27.6654 17.1832 26.6934 17.1832C25.7214 17.1832 24.8386 16.9549 24.0419 16.5016C23.2611 16.0644 22.611 15.4247 22.1584 14.6499C21.7027 13.8687 21.4733 13.0072 21.4733 12.062C21.4733 11.1169 21.7027 10.2553 22.1584 9.48055C22.611 8.709 23.2611 8.0789 24.0419 7.65133C24.8386 7.20769 25.7246 6.98587 26.6934 6.98587C27.6654 6.98266 28.5513 7.20448 29.348 7.65133ZM25.0585 9.13335C24.5518 9.42268 24.1311 9.84382 23.8411 10.3518C23.5415 10.8693 23.3918 11.4384 23.3918 12.062C23.3918 12.6857 23.5447 13.2579 23.8475 13.7787C24.1407 14.2899 24.5613 14.7142 25.0649 15.0132C25.5748 15.3154 26.1261 15.4665 26.7252 15.4665C27.3021 15.4697 27.8693 15.3122 28.3633 15.0132C28.8636 14.7142 29.2747 14.2899 29.5616 13.7787C29.8579 13.2547 30.0077 12.6632 30.0013 12.062C30.0013 11.4384 29.8547 10.8693 29.5616 10.3518C29.2779 9.84703 28.8636 9.4259 28.3633 9.13335C27.8661 8.83759 27.3021 8.68328 26.7252 8.6865C26.1388 8.68328 25.5652 8.83759 25.0585 9.13335ZM7.76013 2.72949C10.3383 2.72949 14.2327 3.52997 16.0428 5.36562C16.5017 5.83176 17.1041 6.74155 17.1041 8.0789C17.1041 10.4514 15.2142 14.0938 13.13 16.2091C12.0529 17.3021 10.3383 18.7295 8.03101 18.7295C5.77471 18.7295 4.05379 17.18 3.55664 16.672C1.64451 14.7367 0.277344 11.7984 0.277344 9.06263C0.277344 7.33307 0.764936 5.82212 2.00463 4.56514C3.15191 3.4046 5.13096 2.72949 7.76013 2.72949ZM10.9502 12.197C11.8202 11.3162 12.056 10.2296 12.056 9.63164C12.056 9.19765 11.9445 8.56433 11.4091 8.02103C10.5901 7.1884 9.67863 6.95372 8.6907 6.95372C7.43825 6.95372 6.59692 7.35557 6.03603 7.92138C5.59624 8.37145 5.217 9.05298 5.217 10.0271C5.217 10.9979 5.73009 11.9366 6.28461 12.5024C6.80088 13.0232 7.61035 13.409 8.423 13.409C9.23884 13.409 10.0802 13.0779 10.9502 12.197Z" fill="#A05BF8"/>
</g>
<defs>
<clipPath id="clip0_297_10636">
<rect width="84.5" height="24" fill="white" transform="translate(0.277344)"/>
</clipPath>
</defs>
</svg>
