<svg width="85" height="24" viewBox="0 0 85 24" fill="none" xmlns="http://www.w3.org/2000/svg">
<g id="Company logo" clip-path="url(#clip0_297_10634)">
<path id="Vector" d="M73.0472 11.2925C74.1076 11.2925 74.5163 11.9413 74.5733 12.5062C74.5741 12.5147 74.5731 12.5233 74.5704 12.5314C74.5677 12.5396 74.5633 12.547 74.5575 12.5533C74.5517 12.5597 74.5447 12.5647 74.5368 12.5681C74.529 12.5716 74.5205 12.5733 74.512 12.5733H71.6002C71.5915 12.5733 71.5829 12.5714 71.5749 12.5679C71.567 12.5643 71.5599 12.559 71.5542 12.5525C71.5484 12.546 71.5441 12.5383 71.5415 12.53C71.539 12.5217 71.5382 12.5129 71.5393 12.5043C71.6179 11.9523 72.1071 11.2925 73.0472 11.2925ZM74.6433 14.8842C74.6239 14.8841 74.6048 14.8886 74.5876 14.8974C74.5703 14.9061 74.5554 14.9189 74.5441 14.9345C74.2815 15.3044 73.8541 15.5325 73.2159 15.5325C72.3366 15.5325 71.5733 14.9547 71.4909 14.1358C71.4901 14.1273 71.4911 14.1188 71.4938 14.1107C71.4965 14.1026 71.5008 14.0951 71.5066 14.0888C71.5123 14.0825 71.5193 14.0775 71.527 14.074C71.5348 14.0705 71.5433 14.0687 71.5518 14.0687H76.7836C76.7985 14.0227 76.8291 13.672 76.8291 13.3514C76.8291 10.9116 75.3744 9.46264 73.0165 9.46264C71.0415 9.46264 69.2193 11.018 69.2193 13.4583C69.2193 16.0054 71.0875 17.4999 73.1852 17.4999C75.0812 17.4999 76.2824 16.4391 76.672 15.1569C76.6744 15.1492 76.6873 15.1013 76.7017 15.0313C76.7054 15.0135 76.7051 14.9951 76.7008 14.9775C76.6965 14.9598 76.6883 14.9434 76.6768 14.9293C76.6653 14.9152 76.6509 14.9038 76.6344 14.896C76.618 14.8882 76.6001 14.8842 76.5819 14.8842H74.6433ZM79.2695 13.4195L76.7889 9.88333C76.7761 9.86498 76.7685 9.84347 76.7671 9.82114C76.7657 9.79881 76.7704 9.77651 76.7808 9.75669C76.7912 9.73687 76.8068 9.72027 76.826 9.70872C76.8452 9.69717 76.8671 9.69111 76.8895 9.69119H79.3284C79.3701 9.69119 79.4084 9.71179 79.4314 9.74629L80.7059 11.6869C80.7299 11.7237 80.7845 11.7233 80.8085 11.6859L82.0538 9.74773C82.0648 9.73041 82.0801 9.71614 82.0981 9.70626C82.1161 9.69638 82.1363 9.6912 82.1568 9.69119H84.4558C84.5554 9.69119 84.6134 9.80283 84.5564 9.88381L82.1089 13.327C82.0943 13.3475 82.0865 13.372 82.0864 13.3971C82.0863 13.4222 82.094 13.4468 82.1084 13.4674C82.9096 14.6078 83.8252 15.9254 84.647 17.0787C84.7045 17.1597 84.647 17.2709 84.5473 17.2709H82.1252C82.1049 17.271 82.0849 17.266 82.067 17.2565C82.0491 17.2469 82.0339 17.2331 82.0227 17.2163L80.7012 15.2124C80.6956 15.204 80.688 15.1972 80.6791 15.1924C80.6702 15.1876 80.6602 15.1851 80.6501 15.1851C80.64 15.1851 80.6301 15.1876 80.6212 15.1924C80.6123 15.1972 80.6047 15.204 80.5991 15.2124C80.2033 15.8008 79.6858 16.6202 79.2934 17.2163C79.2822 17.2332 79.2669 17.247 79.2491 17.2565C79.2311 17.2661 79.2112 17.271 79.1909 17.2709H76.9331C76.9108 17.271 76.8889 17.265 76.8698 17.2535C76.8507 17.2421 76.8351 17.2256 76.8247 17.2059C76.8143 17.1861 76.8096 17.1639 76.8109 17.1417C76.8123 17.1194 76.8198 17.098 76.8325 17.0797L79.2699 13.5584C79.2841 13.538 79.2917 13.5138 79.2917 13.4889C79.2917 13.4641 79.2841 13.4399 79.2699 13.4195H79.2695ZM66.1264 17.1492V6.35151C66.1264 6.28395 66.1814 6.22933 66.249 6.22933H68.3314C68.399 6.22933 68.4541 6.28395 68.4541 6.35151V17.1492C68.4541 17.2163 68.399 17.2709 68.3314 17.2709H66.249C66.233 17.2709 66.2171 17.2678 66.2022 17.2618C66.1874 17.2557 66.1739 17.2467 66.1625 17.2354C66.1511 17.2241 66.142 17.2107 66.1358 17.1959C66.1296 17.1811 66.1264 17.1652 66.1264 17.1492ZM62.6966 17.1492V6.35151C62.6966 6.28395 62.7517 6.22933 62.8193 6.22933H64.9016C64.9692 6.22933 65.0238 6.28395 65.0238 6.35151V17.1492C65.0238 17.2163 64.9692 17.2709 64.9016 17.2709H62.8193C62.8032 17.2709 62.7873 17.2678 62.7725 17.2618C62.7576 17.2557 62.7441 17.2467 62.7327 17.2354C62.7213 17.2241 62.7123 17.2107 62.7061 17.1959C62.6999 17.1811 62.6967 17.1652 62.6966 17.1492ZM57.5467 15.4865C58.481 15.4865 59.2769 14.7549 59.2769 13.4736C59.2769 12.1622 58.4959 11.4755 57.5467 11.4755C56.5515 11.4755 55.8011 12.1622 55.8011 13.4736C55.8011 14.7242 56.5821 15.487 57.5467 15.487V15.4865ZM59.2922 16.2948C58.9554 17.027 58.1902 17.4846 57.2405 17.4846C55.0048 17.4846 53.4586 15.7917 53.4586 13.4583C53.4586 11.2015 54.9133 9.46216 57.1638 9.46216C58.5265 9.46216 59.1236 10.2096 59.2769 10.5604V9.8129C59.2769 9.74581 59.3315 9.69119 59.3996 9.69119H61.4053C61.4724 9.69119 61.5275 9.74581 61.5275 9.81337V17.1492C61.5275 17.2163 61.4728 17.2709 61.4053 17.2709H59.401C59.3848 17.2709 59.3688 17.2677 59.3539 17.2614C59.339 17.2552 59.3254 17.2461 59.3141 17.2346C59.3027 17.2231 59.2937 17.2094 59.2877 17.1945C59.2816 17.1795 59.2786 17.1634 59.2788 17.1473C59.2826 16.8717 59.2922 16.235 59.2922 16.2948ZM48.4922 9.77504L49.887 14.0002C49.9061 14.0577 49.9876 14.0558 50.0039 13.9978L51.1955 9.78031C51.2028 9.75462 51.2182 9.73201 51.2395 9.71591C51.2608 9.69982 51.2867 9.69114 51.3134 9.69119H53.3354C53.4183 9.69119 53.4773 9.77073 53.4528 9.84931L51.1706 17.1851C51.1629 17.2101 51.1474 17.232 51.1264 17.2475C51.1053 17.263 51.0799 17.2714 51.0537 17.2714H48.92C48.8944 17.2713 48.8695 17.2632 48.8487 17.2483C48.8279 17.2333 48.8123 17.2122 48.8041 17.188L47.2373 12.5488C47.2181 12.4933 47.139 12.4937 47.1208 12.5488L45.5828 17.187C45.5747 17.2114 45.5592 17.2326 45.5383 17.2477C45.5175 17.2628 45.4925 17.2709 45.4668 17.2709H43.2872C43.2611 17.2709 43.2358 17.2626 43.2148 17.2473C43.1938 17.232 43.1782 17.2104 43.1702 17.1856L40.8583 9.84979C40.8526 9.83148 40.8513 9.81207 40.8545 9.79315C40.8576 9.77423 40.8652 9.75632 40.8766 9.74087C40.888 9.72543 40.9029 9.71288 40.92 9.70425C40.9371 9.69562 40.9561 9.69115 40.9753 9.69119H43.1353C43.1899 9.69119 43.2383 9.72761 43.2531 9.78031L44.4448 13.9844C44.4611 14.0419 44.5425 14.0438 44.5617 13.9868L45.9714 9.77504C45.9795 9.75061 45.9951 9.72937 46.016 9.71432C46.0369 9.69927 46.062 9.69118 46.0878 9.69119H48.3757C48.4284 9.69119 48.4759 9.72473 48.4922 9.77504ZM40.2268 11.8292C40.2268 11.847 40.2229 11.8646 40.2154 11.8807C40.2078 11.8969 40.1968 11.9112 40.1832 11.9227C40.1695 11.9341 40.1535 11.9425 40.1363 11.9471C40.1191 11.9517 40.1011 11.9525 40.0836 11.9494C39.8881 11.9164 39.69 11.9007 39.4918 11.9025C38.5575 11.9025 37.7156 12.4516 37.7156 13.9614V17.1492C37.7156 17.2163 37.661 17.2709 37.5934 17.2709H35.511C35.495 17.2709 35.4791 17.2678 35.4642 17.2618C35.4494 17.2557 35.4359 17.2467 35.4245 17.2354C35.4131 17.2241 35.404 17.2107 35.3978 17.1959C35.3916 17.1811 35.3884 17.1652 35.3884 17.1492V9.81337C35.3884 9.74629 35.443 9.69119 35.511 9.69119H37.5167C37.5843 9.69119 37.6389 9.74581 37.6389 9.81337V10.7132C38.0371 9.85889 39.0021 9.61501 39.6145 9.61501C39.8004 9.61501 39.9863 9.63513 40.1315 9.66675C40.1875 9.67921 40.2268 9.72904 40.2268 9.78606V11.8292ZM31.9126 17.1492V9.81337C31.9126 9.74629 31.9677 9.69119 32.0353 9.69119H34.1177C34.1852 9.69119 34.2403 9.74581 34.2403 9.81337V17.1492C34.2403 17.2163 34.1852 17.2709 34.1177 17.2709H32.0353C32.0192 17.2709 32.0033 17.2678 31.9885 17.2618C31.9736 17.2557 31.9601 17.2467 31.9487 17.2354C31.9373 17.2241 31.9283 17.2107 31.9221 17.1959C31.9159 17.1811 31.9127 17.1652 31.9126 17.1492ZM33.0611 6.01562C33.8268 6.01562 34.4392 6.62558 34.4392 7.37306C34.4392 8.12053 33.8268 8.73049 33.0611 8.73049C32.3261 8.73049 31.7137 8.12053 31.7137 7.37306C31.7137 6.62558 32.3261 6.01562 33.0611 6.01562ZM24.4968 12.8785H26.9577C26.9999 12.8785 27.0296 12.8373 27.0152 12.7975L25.8001 9.30643C25.796 9.29435 25.7882 9.28385 25.7778 9.2764C25.7675 9.26895 25.755 9.26492 25.7423 9.26486C25.7295 9.26481 25.717 9.26874 25.7066 9.27611C25.6962 9.28347 25.6883 9.29391 25.6841 9.30595L24.4398 12.7975C24.4254 12.8368 24.4551 12.879 24.4973 12.879L24.4968 12.8785ZM27.7229 15.0749H23.7004C23.6752 15.075 23.6506 15.0828 23.63 15.0974C23.6094 15.112 23.5938 15.1326 23.5854 15.1564L22.8619 17.1899C22.8535 17.2138 22.8378 17.2344 22.8172 17.249C22.7965 17.2636 22.7718 17.2714 22.7464 17.2714H20.4686C20.4487 17.2715 20.4292 17.2668 20.4116 17.2576C20.394 17.2485 20.3789 17.2352 20.3676 17.219C20.3563 17.2027 20.3491 17.1839 20.3466 17.1642C20.3442 17.1446 20.3466 17.1246 20.3536 17.106L24.3497 6.53694C24.3585 6.51368 24.3741 6.49364 24.3946 6.47952C24.4151 6.46539 24.4393 6.45784 24.4642 6.45788H27.0967C27.1474 6.45788 27.1934 6.48951 27.2112 6.53742L31.1622 17.1065C31.169 17.125 31.1713 17.1449 31.1687 17.1644C31.1662 17.184 31.159 17.2026 31.1477 17.2187C31.1364 17.2349 31.1214 17.2481 31.1039 17.2571C31.0864 17.2662 31.067 17.2709 31.0473 17.2709H28.6769C28.6516 17.2709 28.6269 17.263 28.6062 17.2484C28.5856 17.2339 28.5699 17.2132 28.5614 17.1894L27.8379 15.1564C27.8294 15.1326 27.8138 15.1121 27.7933 15.0975C27.7727 15.0829 27.7481 15.075 27.7229 15.0749Z" fill="#A05BF8"/>
<path id="Vector_2" fill-rule="evenodd" clip-rule="evenodd" d="M17.4038 10.5145C17.7019 10.8046 17.9086 11.1755 17.9986 11.5816C18.0886 11.9876 18.0579 12.4112 17.9103 12.8L16.7857 15.8551C16.4906 16.6572 15.8178 17.2777 14.9865 17.4396C14.5707 17.5229 14.14 17.4915 13.7407 17.3488C13.3413 17.2062 12.9882 16.9577 12.7192 16.6299L5.97561 8.55042C5.95884 8.53054 5.93715 8.51541 5.9127 8.50654C5.88825 8.49767 5.8619 8.49538 5.83629 8.49989C5.81067 8.5044 5.78669 8.51556 5.76674 8.53225C5.7468 8.54894 5.73158 8.57057 5.72262 8.59498L3.52858 14.5293C3.48307 14.6519 3.60381 14.7708 3.7236 14.7219L6.41595 13.6222C6.56773 13.5607 6.7306 13.5312 6.89432 13.5356C7.05805 13.5399 7.21911 13.5781 7.36739 13.6477C7.51567 13.7172 7.64799 13.8167 7.75603 13.9398C7.86406 14.0629 7.9455 14.2069 7.99523 14.363C8.19408 14.973 7.85963 15.6318 7.27075 15.8723L3.75379 17.3083C3.10262 17.5743 2.35467 17.5273 1.76818 17.1358C1.36852 16.8688 1.07055 16.4747 0.9224 16.0174C0.774253 15.5601 0.78458 15.0662 0.951712 14.6155L3.54392 7.6065C3.85105 6.77565 4.55061 6.18917 5.41548 6.03776C5.83666 5.96228 6.27034 6.0004 6.67188 6.1482C7.07343 6.296 7.42834 6.54814 7.70007 6.87867L11.5707 11.5168L15.1307 10.0626C15.9218 9.73968 16.7929 9.91265 17.4038 10.5145ZM15.3507 12.8441C15.3957 12.7214 15.275 12.6026 15.1552 12.652L13.1883 13.455L14.3679 14.869C14.3847 14.8891 14.4064 14.9045 14.431 14.9135C14.4555 14.9225 14.4821 14.9249 14.5078 14.9203C14.5336 14.9158 14.5577 14.9046 14.5778 14.8877C14.5978 14.8709 14.613 14.849 14.6219 14.8244L15.3502 12.8441H15.3507Z" fill="#A05BF8"/>
</g>
<defs>
<clipPath id="clip0_297_10634">
<rect width="84" height="24" fill="white" transform="translate(0.818359)"/>
</clipPath>
</defs>
</svg>
