<svg width="83" height="24" viewBox="0 0 83 24" fill="none" xmlns="http://www.w3.org/2000/svg">
<g id="Company logo" clip-path="url(#clip0_297_10645)">
<g id="Vector">
<path d="M23.1562 7.0063H26.9673C29.397 7.0063 31.4041 8.41209 31.4041 11.6218V12.2963C31.4041 15.5304 29.527 16.985 27.0405 16.985H23.1562V7.0063ZM25.2852 8.81839V15.1648H26.9186C28.3 15.1648 29.2263 14.2628 29.2263 12.2557V11.7275C29.2263 9.72037 28.2512 8.81839 26.8454 8.81839H25.2852ZM32.5336 8.9159H34.24L34.5163 10.793C34.8414 9.51722 35.6702 8.83464 37.1735 8.83464H37.7017V10.988H36.8241C35.0933 10.988 34.6707 11.5893 34.6707 13.2958V17.0094H32.5661V8.9159H32.5336ZM38.1243 13.1251V12.8976C38.1243 10.1917 39.8551 8.71275 42.2116 8.71275C44.6169 8.71275 46.299 10.1917 46.299 12.8976V13.1251C46.299 15.7823 44.6656 17.2125 42.2116 17.2125C39.6032 17.1881 38.1243 15.7905 38.1243 13.1251ZM44.1456 13.1008V12.8976C44.1456 11.3943 43.3899 10.4923 42.1872 10.4923C41.009 10.4923 40.2289 11.3212 40.2289 12.8976V13.1008C40.2289 14.5553 40.9846 15.3842 42.1872 15.3842C43.3899 15.3598 44.1456 14.5553 44.1456 13.1008ZM47.4041 8.9159H49.1593L49.3624 10.4436C49.785 9.41971 50.687 8.71275 52.0196 8.71275C54.0755 8.71275 55.4325 10.1917 55.4325 12.9301V13.1576C55.4325 15.8148 53.9292 17.2206 52.0196 17.2206C50.7439 17.2206 49.8663 16.6437 49.4356 15.7173V19.8047H47.3797L47.4041 8.9159ZM53.2954 13.1008V12.922C53.2954 11.3131 52.4666 10.5167 51.3614 10.5167C50.1832 10.5167 49.4031 11.4187 49.4031 12.922V13.0764C49.4031 14.5066 50.1588 15.4085 51.3371 15.4085C52.5478 15.3842 53.2954 14.6122 53.2954 13.1008ZM58.5448 15.5142L58.366 16.9931H56.562V6.20996H58.6179V10.3461C59.073 9.2897 59.9749 8.71275 61.2507 8.71275C63.1847 8.73713 64.6149 10.0698 64.6149 12.7514V13.0033C64.6149 15.6848 63.2578 17.2206 61.202 17.2206C59.8449 17.1881 58.9673 16.5624 58.5448 15.5142ZM62.4534 13.0033V12.8001C62.4534 11.3212 61.6489 10.4923 60.5194 10.4923C59.3655 10.4923 58.561 11.4187 58.561 12.8245V13.0033C58.561 14.5066 59.3411 15.3842 60.495 15.3842C61.7302 15.3842 62.4534 14.6122 62.4534 13.0033ZM65.5168 13.1251V12.8976C65.5168 10.1917 67.2477 8.71275 69.6042 8.71275C72.0095 8.71275 73.6916 10.1917 73.6916 12.8976V13.1251C73.6916 15.7823 72.0339 17.2125 69.6042 17.2125C66.9958 17.1881 65.5168 15.7905 65.5168 13.1251ZM71.5544 13.1008V12.8976C71.5544 11.3943 70.7987 10.4923 69.5961 10.4923C68.4178 10.4923 67.6377 11.3212 67.6377 12.8976V13.1008C67.6377 14.5553 68.3934 15.3842 69.5961 15.3842C70.8068 15.3598 71.5544 14.5553 71.5544 13.1008ZM76.4463 12.8001L73.6103 8.9159H76.04L77.6733 11.3456L79.331 8.9159H81.7362L78.8597 12.7757L81.8906 16.9931H79.5097L77.657 14.3115L75.8531 16.9931H73.3665L76.4463 12.8001Z" fill="#A05BF8"/>
</g>
<path id="Vector_2" d="M10.0579 7.0066L5.34489 10.0132L10.0579 13.0198L5.34489 16.0264L0.631836 13.0036L5.34489 9.99695L0.631836 7.0066L5.34489 4L10.0579 7.0066ZM5.32051 16.9934L10.0336 13.9868L14.7466 16.9934L10.0336 20L5.32051 16.9934ZM10.0579 13.0036L14.771 9.99695L10.0579 7.0066L14.7466 4L19.4597 7.0066L14.7466 10.0132L19.4597 13.0198L14.7466 16.0264L10.0579 13.0036Z" fill="#A05BF8"/>
</g>
<defs>
<clipPath id="clip0_297_10645">
<rect width="81.5" height="24" fill="white" transform="translate(0.631836)"/>
</clipPath>
</defs>
</svg>
