<svg width="87" height="24" viewBox="0 0 87 24" fill="none" xmlns="http://www.w3.org/2000/svg">
<g id="svg" clip-path="url(#clip0_297_10641)">
<g id="Company logo" clip-path="url(#clip1_297_10641)">
<g id="Vector">
<path d="M18.39 5.34545C16.9958 4.70778 15.5051 4.24435 13.9466 3.98047C13.7552 4.31876 13.5316 4.77376 13.3774 5.13572C11.7207 4.89215 10.0792 4.89215 8.45291 5.13572C8.29877 4.77376 8.07008 4.31876 7.87696 3.98047C6.31678 4.24435 4.82435 4.70949 3.43018 5.34883C0.618119 9.50292 -0.144184 13.5538 0.236968 17.5472C2.10207 18.9088 3.90958 19.7359 5.68659 20.2772C6.12535 19.6869 6.51665 19.0593 6.85376 18.398C6.21173 18.1595 5.59681 17.8652 5.01578 17.5236C5.16993 17.4119 5.3207 17.2952 5.46637 17.1751C9.01023 18.7955 12.8607 18.7955 16.3622 17.1751C16.5096 17.2952 16.6604 17.4119 16.8128 17.5236C16.2301 17.8669 15.6135 18.1612 14.9715 18.3997C15.3086 19.0593 15.6982 19.6886 16.1386 20.2788C17.9174 19.7376 19.7265 18.9105 21.5917 17.5472C22.0389 12.9179 20.8277 8.90416 18.39 5.34545ZM7.33656 15.0913C6.27273 15.0913 5.4003 14.1204 5.4003 12.9382C5.4003 11.7559 6.2541 10.7833 7.33656 10.7833C8.41905 10.7833 9.29145 11.7542 9.27282 12.9382C9.2745 14.1204 8.41905 15.0913 7.33656 15.0913ZM14.4921 15.0913C13.4282 15.0913 12.5558 14.1204 12.5558 12.9382C12.5558 11.7559 13.4096 10.7833 14.4921 10.7833C15.5745 10.7833 16.447 11.7542 16.4283 12.9382C16.4283 14.1204 15.5745 15.0913 14.4921 15.0913Z" fill="#A05BF8"/>
<path d="M29.0874 8.13831H33.7119C34.8268 8.13831 35.7686 8.31252 36.5412 8.65926C37.3118 9.00598 37.8895 9.48973 38.2725 10.1088C38.6551 10.7278 38.8482 11.4365 38.8482 12.2349C38.8482 13.0163 38.6483 13.725 38.2486 14.3593C37.8488 14.9952 37.2406 15.4976 36.4225 15.868C35.6044 16.2384 34.5912 16.4245 33.3801 16.4245H29.0874V8.13831ZM33.3326 14.3187C34.083 14.3187 34.6608 14.1309 35.0638 13.7571C35.4671 13.3816 35.6688 12.8708 35.6688 12.223C35.6688 11.6226 35.489 11.1439 35.13 10.7853C34.771 10.4268 34.2271 10.2458 33.5002 10.2458H32.0536V14.3187H33.3326Z" fill="#A05BF8"/>
<path d="M45.7717 16.4144C45.1314 16.2486 44.5536 16.0084 44.0405 15.6921V13.7267C44.4284 14.0261 44.9483 14.2731 45.6005 14.4676C46.2527 14.6604 46.883 14.7568 47.4927 14.7568C47.7773 14.7568 47.9925 14.7196 48.1381 14.6452C48.2839 14.5707 48.3568 14.4811 48.3568 14.3779C48.3568 14.2595 48.3179 14.1614 48.2381 14.0819C48.1584 14.0024 48.0043 13.9365 47.7758 13.8806L46.3528 13.561C45.5379 13.3715 44.9601 13.1094 44.6165 12.7728C44.2725 12.4379 44.1013 11.9981 44.1013 11.4535C44.1013 10.9951 44.2504 10.5976 44.5521 10.2577C44.8518 9.9177 45.2787 9.65552 45.8325 9.47115C46.3867 9.28511 47.0336 9.19209 47.7773 9.19209C48.4413 9.19209 49.0495 9.26311 49.6036 9.4052C50.1575 9.54729 50.6148 9.72825 50.9791 9.94982V11.8087C50.6063 11.5871 50.1793 11.4129 49.6916 11.2809C49.2053 11.1507 48.7058 11.0865 48.1906 11.0865C47.4469 11.0865 47.0761 11.2133 47.0761 11.4653C47.0761 11.5837 47.1337 11.6717 47.2488 11.7309C47.3639 11.7901 47.5756 11.851 47.8824 11.9152L49.0681 12.1284C49.8425 12.262 50.42 12.4971 50.7993 12.832C51.179 13.1669 51.3686 13.6625 51.3686 14.3187C51.3686 15.0376 51.0553 15.6076 50.4267 16.0304C49.7982 16.4533 48.9072 16.6647 47.7519 16.6647C47.0725 16.663 46.4121 16.5801 45.7717 16.4144Z" fill="#A05BF8"/>
<path d="M54.1676 16.1657C53.4885 15.8341 52.9751 15.3842 52.6329 14.8159C52.2908 14.2476 52.1181 13.6082 52.1181 12.8978C52.1181 12.1875 52.2958 11.5515 52.6516 10.9916C53.0073 10.4318 53.529 9.99203 54.2169 9.67235C54.9045 9.35268 55.7262 9.19368 56.6833 9.19368C57.869 9.19368 58.8533 9.44233 59.636 9.93958V12.1063C59.3599 11.9168 59.0378 11.7629 58.6703 11.6445C58.3027 11.5261 57.9097 11.4669 57.4896 11.4669C56.7545 11.4669 56.1802 11.6005 55.7651 11.8695C55.35 12.1384 55.1419 12.4885 55.1419 12.9232C55.1419 13.3494 55.3432 13.6979 55.7465 13.9719C56.1498 14.2442 56.7341 14.3812 57.5014 14.3812C57.8962 14.3812 58.2859 14.3237 58.6703 14.2104C59.0532 14.0954 59.3836 13.955 59.6596 13.7892V15.8849C58.7907 16.4058 57.7828 16.6663 56.6358 16.6663C55.6704 16.6629 54.8469 16.4972 54.1676 16.1657Z" fill="#A05BF8"/>
<path d="M62.5936 16.1658C61.9093 15.8343 61.3876 15.381 61.0283 14.8042C60.6693 14.2274 60.488 13.5847 60.488 12.8743C60.488 12.1639 60.6675 11.5296 61.0283 10.9732C61.389 10.4167 61.9075 9.98031 62.5886 9.66402C63.2676 9.34772 64.0793 9.19043 65.0193 9.19043C65.9596 9.19043 66.7709 9.34772 67.4503 9.66402C68.1296 9.98031 68.6481 10.4133 69.0038 10.9664C69.3596 11.5195 69.5373 12.1538 69.5373 12.8726C69.5373 13.583 69.3596 14.2258 69.0038 14.8025C68.6481 15.3793 68.1278 15.8326 67.4435 16.1641C66.7591 16.4956 65.9511 16.6614 65.0178 16.6614C64.0843 16.6614 63.2762 16.4973 62.5936 16.1658ZM66.1967 14.0651C66.4849 13.7775 66.6304 13.397 66.6304 12.9234C66.6304 12.4498 66.4863 12.0726 66.1967 11.7935C65.9088 11.5127 65.5156 11.3723 65.0178 11.3723C64.5112 11.3723 64.1147 11.5127 63.8251 11.7935C63.5372 12.0743 63.3931 12.4498 63.3931 12.9234C63.3931 13.397 63.5372 13.7775 63.8251 14.0651C64.1132 14.3526 64.5112 14.4981 65.0178 14.4981C65.5156 14.4964 65.9088 14.3526 66.1967 14.0651Z" fill="#A05BF8"/>
<path d="M76.6622 9.63018V12.1876C76.3608 11.9897 75.9711 11.8916 75.4884 11.8916C74.8563 11.8916 74.3685 12.0827 74.0296 12.465C73.6892 12.8472 73.5197 13.4426 73.5197 14.2477V16.4262H70.6146V9.49995H73.4607V11.7022C73.618 10.897 73.874 10.3034 74.2262 9.9194C74.577 9.53716 75.0308 9.34603 75.5831 9.34603C76.0015 9.34603 76.3608 9.44076 76.6622 9.63018Z" fill="#A05BF8"/>
<path d="M86.3149 7.90149V16.4262H83.4095V14.8752C83.1638 15.4587 82.7912 15.9035 82.2899 16.208C81.7883 16.5108 81.1683 16.663 80.4332 16.663C79.776 16.663 79.2035 16.504 78.7137 16.1843C78.2242 15.8646 77.8466 15.4266 77.5806 14.8701C77.3164 14.3136 77.1823 13.6844 77.1823 12.9808C77.174 12.2552 77.3146 11.604 77.6042 11.0272C77.8924 10.4504 78.3004 10.0005 78.8256 9.67747C79.3508 9.35442 79.9505 9.19204 80.623 9.19204C82.0071 9.19204 82.9353 9.79248 83.4095 10.9917V7.90149H86.3149ZM82.9761 14.0176C83.2725 13.7301 83.4198 13.3563 83.4198 12.8996C83.4198 12.4581 83.2757 12.0979 82.9879 11.8222C82.6997 11.5465 82.305 11.4078 81.8087 11.4078C81.3192 11.4078 80.928 11.5482 80.6348 11.8289C80.3417 12.1097 80.1961 12.4734 80.1961 12.9233C80.1961 13.3732 80.3417 13.7402 80.6348 14.0244C80.928 14.3085 81.3142 14.4506 81.7969 14.4506C82.2864 14.4489 82.6793 14.3051 82.9761 14.0176Z" fill="#A05BF8"/>
<path d="M41.2964 10.2372C42.0962 10.2372 42.7448 9.65564 42.7448 8.93822C42.7448 8.22081 42.0962 7.63924 41.2964 7.63924C40.4963 7.63924 39.848 8.22081 39.848 8.93822C39.848 9.65564 40.4963 10.2372 41.2964 10.2372Z" fill="#A05BF8"/>
<path d="M39.8467 11.1321C40.7342 11.5143 41.8354 11.5312 42.7433 11.1321V16.4634H39.8467V11.1321Z" fill="#A05BF8"/>
</g>
</g>
</g>
<defs>
<clipPath id="clip0_297_10641">
<rect width="86.3926" height="23.7067" fill="white" transform="translate(0.145508)"/>
</clipPath>
<clipPath id="clip1_297_10641">
<rect width="86.3926" height="23.7067" fill="white" transform="translate(0.145508)"/>
</clipPath>
</defs>
</svg>
