<svg width="81" height="24" viewBox="0 0 81 24" fill="none" xmlns="http://www.w3.org/2000/svg">
<g id="Company logo" clip-path="url(#clip0_297_10638)">
<path id="Vector" d="M5.41013 7.42485L4.74121 9.88689L8.56997 7.41083L6.06588 16.7536L8.60904 16.7557L12.3083 2.95605" fill="#A05BF8"/>
<path id="Vector_2" d="M1.28961 12.8283L0.236328 16.756H5.44879L7.58168 8.76594L1.28961 12.8283ZM19.3958 9.37031C19.2684 9.84386 19.0229 10.1917 18.6568 10.4138C18.2916 10.6355 17.779 10.7468 17.1173 10.7468H15.0149L15.7531 7.99467H17.8554C18.5162 7.99467 18.9703 8.1051 19.2166 8.33019C19.4629 8.55529 19.5224 8.8993 19.3958 9.37498V9.37031ZM21.5725 9.31552C21.84 8.3217 21.7296 7.55722 21.2403 7.02209C20.7519 6.4912 19.8949 6.22363 18.6717 6.22363H13.9799L11.1556 16.7607H13.435L14.5732 12.5136H16.0682C16.4037 12.5136 16.6679 12.5688 16.8607 12.675C17.054 12.7854 17.1674 12.9765 17.2022 13.2526L17.6091 16.7607H20.0511L19.6553 13.4904C19.5746 12.7599 19.2404 12.331 18.653 12.2035C19.4018 11.9869 20.0291 11.6259 20.5345 11.1248C21.0364 10.6273 21.3949 10.0038 21.5725 9.31977V9.31552ZM27.1132 12.9893C26.9221 13.7028 26.6291 14.2421 26.2328 14.6201C25.8361 14.9981 25.3621 15.185 24.8092 15.185C24.246 15.185 23.8642 15.0024 23.6625 14.6329C23.4603 14.2634 23.4535 13.7283 23.6412 13.0275C23.8289 12.3267 24.1284 11.7788 24.5403 11.3839C24.9523 10.9889 25.4339 10.7914 25.9869 10.7914C26.539 10.7914 26.917 10.9825 27.1081 11.3618C27.3035 11.7427 27.3077 12.2876 27.1166 12.9969L27.1132 12.9893ZM28.1121 9.26031L27.8267 10.3263C27.7036 9.94409 27.4645 9.6383 27.1111 9.40895C26.7569 9.18386 26.3186 9.06919 25.7958 9.06919C25.1545 9.06919 24.5386 9.23482 23.9483 9.5661C23.3579 9.89737 22.8398 10.3646 22.3981 10.9676C21.9564 11.5707 21.6336 12.2545 21.4255 13.0232C21.2216 13.7962 21.1792 14.4715 21.3023 15.0576C21.4298 15.6479 21.6973 16.0981 22.1093 16.4124C22.5255 16.7309 23.0564 16.8881 23.7062 16.8881C24.2225 16.8907 24.7331 16.779 25.2012 16.5611C25.664 16.3523 26.0756 16.045 26.4074 15.6607L26.1101 16.7717H28.3143L30.327 9.26413H28.1185L28.1121 9.26031ZM38.2478 9.26031H31.8377L31.3896 10.9337H35.1194L30.1885 15.1935L29.7672 16.7649H36.3842L36.8323 15.0916H32.8358L37.8422 10.768L38.2478 9.26031ZM43.8901 12.9765C43.6918 13.7155 43.3974 14.271 43.0088 14.6329C42.6202 14.9981 42.1496 15.1808 41.5971 15.1808C40.4419 15.1808 40.0622 14.446 40.4563 12.9765C40.6517 12.246 40.9473 11.6969 41.3423 11.3269C41.7372 10.9557 42.2159 10.7706 42.7786 10.7706C43.3307 10.7706 43.7036 10.9545 43.8956 11.3248C44.0876 11.6943 44.0859 12.2452 43.8901 12.9757V12.9765ZM45.1804 9.54274C44.6728 9.22675 44.0252 9.06876 43.2352 9.06876C42.4355 9.06876 41.6952 9.2259 41.014 9.54019C40.3356 9.85251 39.7393 10.3187 39.2727 10.9018C38.7927 11.4922 38.4474 12.1844 38.2355 12.9744C38.0274 13.7614 38.0019 14.4524 38.1633 15.044C38.3247 15.6343 38.6645 16.0888 39.1741 16.4031C39.688 16.7199 40.3421 16.8775 41.1448 16.8775C41.9347 16.8775 42.6695 16.7186 43.3448 16.4026C44.0201 16.085 44.5977 15.6339 45.0776 15.0393C45.5575 14.4473 45.9015 13.7567 46.1139 12.9667C46.3262 12.1768 46.3517 11.4871 46.1903 10.8942C46.0289 10.3038 45.6934 9.84938 45.188 9.53297L45.1804 9.54274ZM53.0494 11.2658L53.6142 9.22293C53.4231 9.12525 53.1725 9.07428 52.8583 9.07428C52.3529 9.07428 51.8687 9.19915 51.4015 9.45227C50.9997 9.66718 50.6583 9.97042 50.3695 10.3501L50.6625 9.25011L50.0225 9.25266H48.451L46.4252 16.7573H48.6604L49.7116 12.8342C49.8645 12.2639 50.1397 11.8149 50.5368 11.4964C50.9318 11.1766 51.4244 11.0165 52.019 11.0165C52.3843 11.0165 52.724 11.1001 53.0468 11.2671L53.0494 11.2658ZM59.2688 13.0126C59.0777 13.7134 58.7889 14.2485 58.3939 14.618C57.9989 14.9892 57.5233 15.1744 56.9711 15.1744C56.419 15.1744 56.041 14.9875 55.8414 14.6138C55.6376 14.2379 55.6333 13.6964 55.8244 12.9846C56.0155 12.2732 56.3086 11.7274 56.7121 11.3495C57.1155 10.9685 57.5912 10.7782 58.1433 10.7782C58.687 10.7782 59.0522 10.9736 59.2476 11.3686C59.443 11.7635 59.4472 12.3114 59.2595 13.0122L59.2688 13.0126ZM60.8224 9.55505C60.4083 9.22378 59.8796 9.05814 59.2382 9.05814C58.6763 9.05814 58.1408 9.18556 57.6328 9.44293C57.1253 9.69988 56.7133 10.0503 56.3969 10.4937L56.4046 10.4427L56.7796 9.24926H54.5966L54.0402 11.3261L54.0232 11.3983L51.7298 19.9536H53.968L55.1232 15.6471C55.2379 16.0302 55.4715 16.3309 55.8282 16.5483C56.185 16.7649 56.6254 16.8724 57.1491 16.8724C57.7989 16.8724 58.419 16.7152 59.0072 16.4009C59.5975 16.0858 60.1072 15.6322 60.5404 15.0461C60.9736 14.46 61.2951 13.7805 61.5002 13.0118C61.7084 12.2418 61.7508 11.555 61.6319 10.954C61.5109 10.3522 61.2429 9.88633 60.8292 9.55675L60.8224 9.55505ZM68.2468 12.982C68.0556 13.6913 67.7626 14.2349 67.3676 14.6087C66.9726 14.985 66.4969 15.1723 65.9448 15.1723C65.38 15.1723 64.9977 14.9896 64.7981 14.6201C64.5943 14.2506 64.59 13.7155 64.7769 13.0147C64.9637 12.314 65.2619 11.7661 65.6739 11.3711C66.0858 10.9761 66.5679 10.7791 67.1208 10.7791C67.673 10.7791 68.0467 10.9702 68.2421 11.3482C68.4375 11.7274 68.4387 12.2723 68.2485 12.9833L68.2468 12.982ZM69.2448 9.25096L68.959 10.317C68.8358 9.93262 68.598 9.62683 68.2455 9.39961C67.8887 9.17282 67.4513 9.05984 66.9289 9.05984C66.2876 9.05984 65.6683 9.22548 65.0771 9.55675C64.4868 9.88803 63.9687 10.3527 63.527 10.954C63.0853 11.5554 62.7625 12.2409 62.5544 13.0096C62.3484 13.7813 62.308 14.4579 62.4312 15.0465C62.5556 15.6326 62.8236 16.0854 63.2382 16.4014C63.6518 16.7157 64.1853 16.8745 64.8351 16.8745C65.3575 16.8745 65.8565 16.7658 66.33 16.5475C66.7918 16.3378 67.2023 16.0301 67.5332 15.6458L67.2359 16.7577H69.4402L71.4525 9.25309H69.2482L69.2448 9.25096ZM80.7065 9.25351L80.7077 9.25139H79.3529C79.3096 9.25139 79.2714 9.25351 79.2319 9.25436H78.529L78.168 9.75552L78.0788 9.87444L78.0406 9.9339L75.1844 13.9126L74.594 9.25351H72.2547L73.4397 16.3334L70.8235 19.9562H73.1551L73.7879 19.0588C73.8058 19.0324 73.8219 19.0104 73.8432 18.9823L74.5821 17.9333L74.6034 17.9036L77.9131 13.2105L80.7035 9.26073L80.7077 9.25818H80.7065V9.25351Z" fill="#A05BF8"/>
</g>
<defs>
<clipPath id="clip0_297_10638">
<rect width="80.5" height="24" fill="white" transform="translate(0.236328)"/>
</clipPath>
</defs>
</svg>
