<svg width="128" height="48" viewBox="0 0 128 48" fill="none" xmlns="http://www.w3.org/2000/svg">
<g clip-path="url(#clip0_297_10590)">
<path d="M46.172 24.0526C46.1762 22.2602 45.6261 20.5103 44.597 19.0428C43.5679 17.5752 42.1102 16.4617 40.4236 15.8549C40.5771 15.0726 40.6545 14.2773 40.6547 13.4801C40.6562 10.8413 39.8209 8.26997 38.2689 6.13585C36.7169 4.00172 34.5281 2.4147 32.0173 1.60296C29.5064 0.79122 26.8029 0.796569 24.2953 1.61824C21.7877 2.43991 19.6052 4.03558 18.0616 6.17583C16.9229 5.29337 15.5275 4.80608 14.087 4.78776C12.6464 4.76944 11.2391 5.2211 10.0783 6.07432C8.91746 6.92754 8.06631 8.13583 7.65377 9.51617C7.24123 10.8965 7.28978 12.3737 7.79207 13.724C6.10152 14.3402 4.64022 15.4593 3.60473 16.9308C2.56924 18.4024 2.00923 20.1557 2.00003 21.955C1.99534 23.7536 2.54832 25.5095 3.58284 26.9808C4.61736 28.4521 6.08255 29.5666 7.77666 30.1707C7.6267 30.9526 7.5502 31.7468 7.54817 32.543C7.54565 35.1787 8.38025 37.7471 9.93163 39.8779C11.483 42.0087 13.671 43.5918 16.1802 44.3988C18.6893 45.2059 21.3899 45.1953 23.8926 44.3685C26.3953 43.5416 28.5707 41.9414 30.1053 39.7984C31.2407 40.6831 32.6337 41.1733 34.0729 41.1948C35.5121 41.2163 36.9191 40.7678 38.0805 39.9174C39.2418 39.0671 40.0941 37.8611 40.5082 36.4826C40.9222 35.104 40.8754 33.6281 40.3749 32.2785C42.0663 31.6634 43.5286 30.5446 44.5646 29.0729C45.6007 27.6012 46.1608 25.8473 46.1695 24.0475" fill="white"/>
<path d="M19.3655 19.9502L29.0318 24.3635L38.7879 15.8192C38.9284 15.1142 38.9981 14.3969 38.9958 13.678C38.9953 11.3507 38.25 9.0846 36.8688 7.21135C35.4877 5.33811 33.5433 3.95605 31.3202 3.26742C29.0971 2.57879 26.7119 2.61973 24.5137 3.38425C22.3155 4.14878 20.4197 5.59675 19.1037 7.51629L17.4785 15.9219L19.3655 19.9502Z" fill="#FEC514"/>
<path d="M9.36056 30.1865C9.21803 30.9025 9.14665 31.6309 9.14747 32.361C9.14752 34.6981 9.89669 36.9736 11.285 38.8535C12.6734 40.7335 14.6278 42.1189 16.8614 42.8065C19.095 43.4941 21.4902 43.4476 23.6954 42.6738C25.9006 41.9001 27.7998 40.4398 29.1141 38.5074L30.7238 30.1197L28.5749 26.0119L18.8728 21.5908L9.36056 30.1865Z" fill="#00BFB3"/>
<path d="M9.30175 13.46L15.9256 15.0235L17.3762 7.49081C16.4753 6.80766 15.3773 6.43471 14.2466 6.42783C13.116 6.42095 12.0135 6.78049 11.1043 7.45263C10.1951 8.12477 9.52813 9.07333 9.20317 10.1563C8.87822 11.2393 8.9128 12.3983 9.30175 13.46Z" fill="#F04E98"/>
<path d="M8.72629 15.0361C7.27294 15.5266 6.00856 16.4577 5.10899 17.7001C4.20942 18.9425 3.71938 20.4343 3.70703 21.9681C3.70599 23.4505 4.15616 24.898 4.99769 26.1184C5.83923 27.3387 7.03226 28.274 8.4182 28.7999L17.7122 20.3994L16.0048 16.7537L8.72629 15.0361Z" fill="#1BA9F5"/>
<path d="M30.8145 38.5075C31.7139 39.1872 32.8091 39.5578 33.9365 39.5637C35.0639 39.5697 36.163 39.2109 37.0697 38.5408C37.9764 37.8707 38.6419 36.9253 38.967 35.8458C39.2921 34.7662 39.2593 33.6105 38.8735 32.5512L32.2548 31.0107L30.8145 38.5075Z" fill="#93C90E"/>
<path d="M32.1598 29.2673L39.4461 30.9695C40.9002 30.4804 42.1655 29.5495 43.0653 28.3069C43.965 27.0642 44.4545 25.5717 44.4653 24.0375C44.464 22.5582 44.0129 21.1144 43.172 19.8974C42.331 18.6805 41.1399 17.748 39.7567 17.2236L30.2266 25.5677L32.1598 29.2673Z" fill="#0077CC"/>
<path d="M63.7608 31.911L64.644 31.8211L64.7056 33.6183C62.7403 33.9151 60.7572 34.0781 58.7698 34.1061C56.579 34.1061 55.0266 33.472 54.1126 32.2037C53.1986 30.9354 52.7424 28.9619 52.7441 26.2833C52.7441 20.9482 54.8648 18.2798 59.1061 18.2781C61.1601 18.2781 62.6919 18.8515 63.7018 19.9983C64.7116 21.1451 65.2182 22.9422 65.2217 25.3898L65.101 27.1254H55.0574C55.0574 28.8096 55.362 30.0573 55.9714 30.8686C56.5807 31.6799 57.6402 32.0856 59.1498 32.0856C60.6628 32.0907 62.1999 32.0325 63.7608 31.911ZM62.9393 25.3077C62.9393 23.4403 62.6406 22.1215 62.0432 21.3513C61.4459 20.5811 60.472 20.1951 59.1216 20.1934C57.7711 20.1934 56.7561 20.5991 56.0766 21.4103C55.3971 22.2216 55.0471 23.5207 55.0266 25.3077H62.9393Z" fill="#1C1E23"/>
<path d="M68.4052 33.9854V13.9598H70.6877V33.9854H68.4052Z" fill="#1C1E23"/>
<path d="M85.0626 23.1767V30.8532C85.0626 31.6234 86.9573 31.5824 86.9573 31.5824L86.8418 33.6003C85.2372 33.6003 83.9098 33.7338 83.114 32.9611C81.3904 33.7265 79.5235 34.116 77.6377 34.1035C76.2393 34.1035 75.1739 33.7073 74.4413 32.9148C73.7087 32.1224 73.3433 30.9833 73.345 29.4976C73.345 28.0154 73.7207 26.9242 74.4721 26.2242C75.2235 25.5242 76.4002 25.0963 78.0023 24.9405L82.7802 24.4861V23.1767C82.7802 22.1497 82.5577 21.4086 82.1127 20.9533C81.8688 20.7245 81.5811 20.5473 81.267 20.4326C80.9528 20.3179 80.6187 20.2679 80.2847 20.2858H74.2873V18.2755H80.1332C81.8585 18.2755 83.1114 18.6718 83.8919 19.4643C84.6724 20.2567 85.0626 21.4942 85.0626 23.1767ZM75.6839 29.3847C75.6839 31.252 76.4541 32.1857 77.9946 32.1857C79.3843 32.1841 80.7636 31.9471 82.0742 31.4848L82.7725 31.2409V26.2191L78.277 26.6453C77.363 26.7274 76.7032 26.991 76.2975 27.436C75.8919 27.881 75.6873 28.5306 75.6839 29.3847Z" fill="#1C1E23"/>
<path d="M93.9738 20.3166C91.7607 20.3166 90.6542 21.0868 90.6542 22.6273C90.6542 23.3393 90.9109 23.8417 91.4244 24.1343C91.9379 24.427 93.094 24.7317 94.8929 25.0483C96.7004 25.365 97.9789 25.8066 98.7286 26.3731C99.4783 26.9396 99.854 28.0043 99.8557 29.5669C99.8557 31.1313 99.3533 32.2781 98.3486 33.0073C97.3439 33.7364 95.878 34.1018 93.9507 34.1035C92.6927 34.1035 88.4924 33.6363 88.4924 33.6363L88.6156 31.6594C91.029 31.8904 92.7723 32.0625 93.9507 32.0625C95.1291 32.0625 96.0252 31.875 96.6439 31.5002C97.2626 31.1254 97.5707 30.4963 97.5707 29.6132C97.5707 28.73 97.314 28.1318 96.78 27.816C96.2459 27.5002 95.0958 27.2024 93.3114 26.9174C91.5271 26.6324 90.2562 26.2165 89.5065 25.6696C88.7569 25.1228 88.3795 24.1061 88.3795 22.6247C88.3795 21.1433 88.8929 20.0573 89.9481 19.3385C91.0033 18.6196 92.2973 18.273 93.8583 18.273C95.0958 18.273 99.391 18.5888 99.391 18.5888V20.5785C97.124 20.4784 95.2703 20.3166 93.9738 20.3166Z" fill="#1C1E23"/>
<path d="M110.857 20.558H106.018V27.834C106.018 29.5781 106.144 30.724 106.398 31.2717C106.654 31.8211 107.255 32.0933 108.208 32.0933L110.916 31.911L111.07 33.798C110.045 33.9876 109.006 34.1 107.964 34.1343C106.382 34.1343 105.287 33.7484 104.677 32.9765C104.068 32.2045 103.764 30.7334 103.766 28.5631V20.558H101.614V18.5811H103.776V13.9238H106.028V18.5811H110.857V20.558Z" fill="#1C1E23"/>
<path d="M114.03 16.6376V13.988H116.313V16.6376H114.03ZM114.03 33.9854V18.5811H116.313V33.9854H114.03Z" fill="#1C1E23"/>
<path d="M126.2 18.2756C127.34 18.3242 128.475 18.4468 129.599 18.6427L130.328 18.7326L130.238 20.5888C129.046 20.4377 127.846 20.3468 126.644 20.3166C124.919 20.3166 123.747 20.7274 123.129 21.549C122.511 22.3706 122.202 23.8922 122.2 26.1138C122.2 28.3389 122.489 29.8862 123.068 30.7557C123.646 31.6252 124.853 32.0616 126.688 32.065L130.282 31.7929L130.374 33.6799C128.975 33.9169 127.562 34.0593 126.143 34.1061C123.771 34.1061 122.133 33.4968 121.229 32.2781C120.326 31.0595 119.874 29.0056 119.874 26.1164C119.874 23.2255 120.361 21.1964 121.335 20.0291C122.309 18.8618 123.93 18.2773 126.2 18.2756Z" fill="#1C1E23"/>
</g>
<defs>
<clipPath id="clip0_297_10590">
<rect width="128" height="48" fill="white"/>
</clipPath>
</defs>
</svg>
