<svg width="118" height="48" viewBox="0 0 118 48" fill="none" xmlns="http://www.w3.org/2000/svg">
<g clip-path="url(#clip0_297_10599)">
<path d="M37.6867 20.6683H26.9677L36.2504 15.3367L34.4096 12.1633L25.1257 17.495L30.4841 8.26083L27.2949 6.42917L21.9354 15.661V5H18.2514V15.6622L12.8919 6.42917L9.70149 8.26083L15.0598 17.4927L5.77831 12.1633L3.93631 15.3367L13.219 20.6683H2.5V24.3328H13.2178L3.93631 29.6645L5.77714 32.8378L15.061 27.5062L9.70149 36.7403L12.8907 38.572L18.2514 29.339V40H21.9354V29.1103L27.3933 38.5137L30.3844 36.7963L24.9252 27.3907L34.4072 32.8367L36.2492 29.6633L26.9677 24.3317H37.6855V20.6683H37.6867V20.6683ZM20.0934 27.4817C19.4357 27.4817 18.7845 27.3529 18.1769 27.1026C17.5693 26.8523 17.0172 26.4853 16.5522 26.0226C16.0871 25.56 15.7182 25.0107 15.4664 24.4062C15.2147 23.8017 15.0851 23.1538 15.085 22.4994C15.0849 21.8451 15.2144 21.1971 15.466 20.5925C15.7176 19.9879 16.0864 19.4386 16.5513 18.9759C17.0163 18.5131 17.5683 18.146 18.1758 17.8955C18.7834 17.645 19.4346 17.5161 20.0922 17.516C21.4203 17.5158 22.6941 18.0407 23.6334 18.975C24.5726 19.9094 25.1004 21.1767 25.1005 22.4982C25.1007 23.8198 24.5732 25.0872 23.6342 26.0218C22.6952 26.9564 21.4215 27.4815 20.0934 27.4817V27.4817Z" fill="#625DF5"/>
<path d="M47.1836 35.3019V9.69824H51.9064V35.3019H47.1836V35.3019ZM92.4808 17.9022H96.9902V20.0256C97.9493 18.3281 100.188 17.4076 102.105 17.4076C104.485 17.4076 106.402 18.4342 107.289 20.3067C108.673 18.1834 110.521 17.4076 112.83 17.4076C116.061 17.4076 119.149 19.3524 119.149 24.0202V35.3019H114.57V24.9757C114.57 23.1009 113.646 21.6857 111.479 21.6857C109.454 21.6857 108.246 23.2432 108.246 25.1181V35.3031H103.561V24.9757C103.561 23.1009 102.602 21.6857 100.47 21.6857C98.4101 21.6857 97.2024 23.2082 97.2024 25.1181V35.3031H92.4808V17.9022V17.9022ZM62.5797 35.8059C57.2589 35.8059 53.4061 31.8777 53.4061 26.6021C53.4061 21.4104 57.2472 17.3901 62.5797 17.3901C67.938 17.3901 71.7533 21.4477 71.7533 26.6021C71.7533 31.8404 67.8982 35.8059 62.5797 35.8059ZM62.5797 21.6484C61.2599 21.6503 59.9948 22.173 59.0619 23.1019C58.129 24.0308 57.6045 25.29 57.6036 26.6032C57.6045 27.9165 58.129 29.1757 59.0619 30.1046C59.9948 31.0335 61.2599 31.5562 62.5797 31.5581C63.8993 31.5559 65.1641 31.033 66.0967 30.1042C67.0294 29.1753 67.5537 27.9163 67.5546 26.6032C67.5537 25.2902 67.0294 24.0312 66.0967 23.1023C65.1641 22.1734 63.8993 21.6506 62.5797 21.6484V21.6484ZM81.8404 35.8059C76.5195 35.8059 72.6667 31.8777 72.6667 26.6021C72.6667 21.4104 76.5078 17.3901 81.8404 17.3901C87.1987 17.3901 91.014 21.4477 91.014 26.6021C91.014 31.8404 87.1565 35.8059 81.8404 35.8059ZM81.8404 21.5889C80.5054 21.5911 79.2259 22.1199 78.2823 23.0595C77.3387 23.9991 76.808 25.2726 76.8068 26.6009C76.808 27.9292 77.3387 29.2028 78.2823 30.1423C79.2259 31.0819 80.5054 31.6107 81.8404 31.6129C83.1753 31.6107 84.4548 31.0819 85.3984 30.1423C86.342 29.2028 86.8727 27.9292 86.8739 26.6009C86.8727 25.2726 86.342 23.9991 85.3984 23.0595C84.4548 22.1199 83.1753 21.5911 81.8404 21.5889V21.5889Z" fill="#212121"/>
</g>
<defs>
<clipPath id="clip0_297_10599">
<rect width="117" height="48" fill="white" transform="translate(0.5)"/>
</clipPath>
</defs>
</svg>
