<svg width="145" height="48" viewBox="0 0 145 48" fill="none" xmlns="http://www.w3.org/2000/svg">
<g clip-path="url(#clip0_297_10570)">
<path fill-rule="evenodd" clip-rule="evenodd" d="M2 38.9361C2 40.7945 3.20602 41.9998 5.06513 41.9998L14.0207 42C19.3632 42 23.7335 40.1931 26.7047 37.0299H2V38.9361ZM14.0207 8.00017L5.06513 8C3.20602 8 2 9.20546 2 11.0639V12.9701H26.7047C23.7335 9.80692 19.3632 8.00017 14.0207 8.00017ZM21.8363 29.8446C21.8363 31.348 22.8161 32.3235 24.3267 32.3235H29.693C30.3013 30.8146 30.71 29.1557 30.9 27.3656H24.3267C22.8161 27.3656 21.8363 28.3409 21.8363 29.8446ZM14.3981 20.1677C14.3981 21.6713 15.3779 22.6466 16.8885 22.6466H30.9C30.71 20.8565 30.3013 19.1977 29.693 17.6888H16.8885C15.3779 17.6888 14.3981 18.664 14.3981 20.1677ZM16.8868 29.8446C16.8868 28.3409 15.907 27.3656 14.3964 27.3656H2V32.3235H14.3964C15.907 32.3235 16.8868 31.3482 16.8868 29.8446ZM9.4487 20.1677C9.4487 18.664 8.46888 17.6888 6.95826 17.6888H2V22.6466H6.95826C8.46888 22.6466 9.4487 21.6713 9.4487 20.1677Z" fill="#0062FF"/>
<path fill-rule="evenodd" clip-rule="evenodd" d="M65.0228 24.4873C65.4219 22.5471 66.7109 21.5605 68.4052 21.5605C70.0849 21.5605 71.3132 22.5913 71.705 24.4873H65.0228ZM68.4973 18.1992C64.1833 18.1992 61.5 21.6533 61.5 25.8782C61.5 30.2538 64.3673 33.4992 68.6289 33.4992C71.568 33.4992 73.3508 32.1372 74.4542 30.4221L71.7106 28.6656C71.0208 29.6099 69.9171 30.1089 68.7341 30.1089C66.7989 30.1089 65.503 29.2008 65.0613 27.385H72.3028C72.3022 27.3873 72.3017 27.3897 72.301 27.3922L74.9409 27.4077C75.041 26.9299 75.1 26.4362 75.1 25.8782C75.1 22.1981 72.8377 18.1992 68.4973 18.1992Z" fill="#0062FF"/>
<path fill-rule="evenodd" clip-rule="evenodd" d="M50.4498 30.0996C47.7955 30.0996 46.1998 28.1967 46.1998 25.8495C46.1998 23.5023 47.8261 21.5996 50.4498 21.5996C53.0736 21.5996 54.6998 23.5023 54.6998 25.8495C54.6998 28.1967 53.1041 30.0996 50.4498 30.0996ZM54.4106 20.446C53.3507 19.173 51.8458 18.3926 49.9779 18.3926C45.8026 18.3926 42.7998 21.7746 42.7998 25.9461C42.7998 30.1178 45.7741 33.4996 49.9779 33.4996C51.8458 33.4996 53.3507 32.7193 54.4106 31.4463V33.1276H58.0998V13.0996H54.4106V20.446Z" fill="#0062FF"/>
<path fill-rule="evenodd" clip-rule="evenodd" d="M86.3817 25.5988C87.3833 26.2984 88.0181 27.3476 88.0181 28.732C88.0181 31.5301 86.1321 33.4713 82.606 33.4713C79.2877 33.4713 77.5083 31.7711 76.7998 30.0539L79.8455 28.2753C79.8455 28.2753 80.2555 30.131 82.5514 30.131C83.9727 30.131 84.4101 29.5029 84.4101 28.9481C84.4101 28.6911 84.328 28.2182 83.3168 27.8184C81.2855 27.0157 77.3581 26.6556 77.3581 22.9935C77.3581 19.996 79.7078 18.3972 82.606 18.3972C85.3161 18.3972 87.057 20.0835 87.7179 21.3955L84.7381 23.1364C84.7381 23.1364 84.1641 21.6803 82.6334 21.6803C81.1028 21.6803 80.9661 22.5654 80.9661 22.8223C80.9661 23.5717 81.7301 23.8794 83.3714 24.3641C84.3432 24.651 85.3413 24.9115 86.3848 25.5961C86.3838 25.597 86.3827 25.5979 86.3817 25.5988ZM146.5 22.337H143.411V28.2752C143.411 30.1311 145.215 29.7313 146.5 29.7313V33.0716C146.5 33.0716 145.823 33.1858 144.641 33.1858C142.017 33.1858 139.885 32.3865 139.885 28.2752V22.337H137.507V18.7967H139.885V14.7998H143.411V18.7967H146.5V22.337ZM96.7837 29.874C98.2469 29.874 99.3719 29.145 99.9405 27.9491L102.997 29.7796C101.799 31.9734 99.5679 33.4998 96.7837 33.4998C92.5609 33.4998 89.6088 30.1254 89.6088 25.9628C89.6088 21.8001 92.5882 18.4257 96.7837 18.4257C99.5271 18.4257 101.75 19.9271 102.961 22.0918L99.911 23.9641C99.3314 22.7838 98.2153 22.0514 96.7837 22.0514C94.65 22.0514 93.1349 23.8026 93.1349 25.9628C93.1349 28.1229 94.6361 29.874 96.7837 29.874Z" fill="#0062FF"/>
<path fill-rule="evenodd" clip-rule="evenodd" d="M129.197 29.8349C126.9 29.8349 125.52 28.0442 125.52 25.8354C125.52 23.6266 126.927 21.8361 129.197 21.8361C131.468 21.8361 132.875 23.6266 132.875 25.8354C132.875 28.0442 131.494 29.8349 129.197 29.8349ZM129.635 18.347C133.512 18.347 136.3 21.6998 136.3 25.8354C136.3 29.9712 133.539 33.3238 129.635 33.3238C127.901 33.3238 126.504 32.5502 125.52 31.2881V38.5996H122.094V18.7443H125.52V20.3827C126.504 19.1207 127.901 18.347 129.635 18.347ZM115.509 32.9549V18.7725H118.934V32.9549H115.509ZM109.126 21.1951C109.787 19.4765 111.133 18.4935 113.162 18.4891V22.5736C110.784 22.3333 109.066 23.5964 109.128 26.58C109.127 26.5779 109.127 26.5756 109.126 26.5733V32.9549H105.7V18.7727H109.126V21.1951ZM115.509 16.8798V13.0996H119.047V16.8798H115.509Z" fill="#0062FF"/>
</g>
<defs>
<clipPath id="clip0_297_10570">
<rect width="145" height="48" fill="white"/>
</clipPath>
</defs>
</svg>
