<svg width="127" height="48" viewBox="0 0 127 48" fill="none" xmlns="http://www.w3.org/2000/svg">
<g clip-path="url(#clip0_297_10578)">
<path d="M29.1506 11.884C29.1253 11.707 28.9736 11.6059 28.8472 11.6059C28.7208 11.6059 26.2181 11.5554 26.2181 11.5554C26.2181 11.5554 24.1199 9.53297 23.9177 9.30545C23.7154 9.10321 23.3109 9.15377 23.1593 9.20433C23.1593 9.20433 22.7548 9.33073 22.0975 9.53297C21.9964 9.17905 21.8194 8.74929 21.5919 8.29426C20.8588 6.87858 19.7465 6.12019 18.4319 6.12019C18.3308 6.12019 18.255 6.12019 18.1538 6.14547C18.1033 6.09491 18.078 6.04435 18.0274 6.01907C17.446 5.41235 16.7129 5.10899 15.8281 5.13427C14.1343 5.18483 12.4406 6.42355 11.0502 8.59762C10.0896 10.1397 9.35644 12.061 9.12892 13.5525C7.18237 14.1592 5.81726 14.5889 5.7667 14.5889C4.78079 14.8923 4.75551 14.9176 4.62911 15.8529C4.57855 16.5608 2 36.5066 2 36.5066L23.6396 40.248L33.0184 37.9223C32.9931 37.9223 29.1759 12.061 29.1506 11.884ZM21.0105 9.88689C20.5049 10.0386 19.9487 10.2155 19.342 10.4178C19.342 9.55825 19.2156 8.34482 18.8364 7.33362C20.1257 7.53586 20.7577 9.00209 21.0105 9.88689ZM18.2044 10.7464C17.0668 11.1003 15.8281 11.4795 14.5894 11.8587C14.9433 10.5189 15.6006 9.20433 16.4095 8.31954C16.7129 7.9909 17.1426 7.63698 17.623 7.43474C18.1286 8.42066 18.2297 9.81105 18.2044 10.7464ZM15.8787 6.27187C16.2831 6.27187 16.6118 6.34771 16.8898 6.54995C16.4348 6.77746 15.9798 7.13138 15.5753 7.58642C14.4883 8.74929 13.654 10.5442 13.3254 12.2885C12.2889 12.6171 11.2777 12.9205 10.3676 13.1986C10.9744 10.443 13.2748 6.34771 15.8787 6.27187Z" fill="#95BF47"/>
<path d="M28.8473 11.6056C28.7209 11.6056 26.2182 11.555 26.2182 11.555C26.2182 11.555 24.12 9.53263 23.9177 9.30511C23.8419 9.22927 23.7408 9.17871 23.6396 9.17871V40.2477L33.0185 37.9219C33.0185 37.9219 29.2012 12.0606 29.1759 11.8837C29.1254 11.7067 28.9737 11.6056 28.8473 11.6056Z" fill="#5E8E3E"/>
<path d="M18.4318 16.4337L17.3447 20.5038C17.3447 20.5038 16.1313 19.9476 14.6904 20.0487C12.5668 20.1751 12.5668 21.515 12.5668 21.8436C12.6932 23.6637 17.4711 24.0682 17.7492 28.3405C17.9515 31.7027 15.9796 34.0032 13.0977 34.1802C9.65966 34.3571 7.76367 32.3347 7.76367 32.3347L8.49679 29.2253C8.49679 29.2253 10.4181 30.6663 11.9349 30.5652C12.9208 30.5146 13.3 29.6804 13.2494 29.1242C13.0977 26.7479 9.20462 26.8996 8.95183 22.9812C8.74959 19.6948 10.8984 16.3831 15.651 16.0798C17.4964 15.9534 18.4318 16.4337 18.4318 16.4337Z" fill="white"/>
<path d="M45.7092 25.1057C44.6221 24.5243 44.066 24.0187 44.066 23.3361C44.066 22.4766 44.8496 21.9204 46.0631 21.9204C47.4788 21.9204 48.7427 22.5019 48.7427 22.5019L49.7287 19.4683C49.7287 19.4683 48.8186 18.7605 46.1389 18.7605C42.3975 18.7605 39.7937 20.9092 39.7937 23.9175C39.7937 25.6366 41.0071 26.9259 42.625 27.8612C43.9396 28.5943 44.3946 29.1252 44.3946 29.9089C44.3946 30.7178 43.7373 31.3751 42.5239 31.3751C40.729 31.3751 39.01 30.4398 39.01 30.4398L37.9482 33.4733C37.9482 33.4733 39.5156 34.5351 42.17 34.5351C46.0125 34.5351 48.7933 32.6391 48.7933 29.2263C48.768 27.3809 47.3776 26.0663 45.7092 25.1057Z" fill="black"/>
<path d="M61.0288 18.7101C59.1329 18.7101 57.6413 19.6202 56.5038 20.9853L56.4532 20.96L58.0964 12.3649H53.8241L49.6529 34.2572H53.9252L55.3409 26.7744C55.897 23.943 57.3633 22.1987 58.7284 22.1987C59.689 22.1987 60.0682 22.856 60.0682 23.7914C60.0682 24.3728 60.0177 25.1059 59.8913 25.6874L58.2733 34.2572H62.5456L64.2141 25.4093C64.3911 24.4739 64.5175 23.3616 64.5175 22.6032C64.5428 20.1763 63.2788 18.7101 61.0288 18.7101Z" fill="black"/>
<path d="M74.2246 18.7097C69.0675 18.7097 65.6547 23.3612 65.6547 28.5436C65.6547 31.8553 67.7024 34.5349 71.5449 34.5349C76.6009 34.5349 80.0137 30.0098 80.0137 24.7011C80.039 21.6422 78.2441 18.7097 74.2246 18.7097ZM72.1263 31.2738C70.6601 31.2738 70.0534 30.0351 70.0534 28.4678C70.0534 26.0156 71.3174 22.0214 73.6431 22.0214C75.1599 22.0214 75.6655 23.336 75.6655 24.5999C75.6655 27.2291 74.3763 31.2738 72.1263 31.2738Z" fill="black"/>
<path d="M90.9857 18.7097C88.1038 18.7097 86.4606 21.263 86.4606 21.263H86.4101L86.6629 18.9625H82.8709C82.6939 20.5046 82.34 22.8809 82.0114 24.6505L79.0283 40.324H83.3006L84.4888 33.9788H84.5899C84.5899 33.9788 85.4747 34.5349 87.0926 34.5349C92.1233 34.5349 95.4097 29.3778 95.4097 24.1702C95.4097 21.2883 94.1204 18.7097 90.9857 18.7097ZM86.8904 31.3244C85.7781 31.3244 85.1208 30.6924 85.1208 30.6924L85.8286 26.6982C86.3342 24.0185 87.7246 22.2489 89.2161 22.2489C90.5307 22.2489 90.9352 23.4624 90.9352 24.5999C90.9352 27.3807 89.292 31.3244 86.8904 31.3244Z" fill="black"/>
<path d="M101.527 12.567C100.162 12.567 99.0745 13.654 99.0745 15.0444C99.0745 16.3084 99.8835 17.1932 101.097 17.1932H101.147C102.487 17.1932 103.625 16.2832 103.65 14.7158C103.65 13.4771 102.816 12.567 101.527 12.567Z" fill="black"/>
<path d="M95.5356 34.2317H99.8079L102.715 19.0638H98.4175L95.5356 34.2317Z" fill="black"/>
<path d="M113.61 19.0388H110.627L110.779 18.3309C111.032 16.8647 111.891 15.5754 113.332 15.5754C114.091 15.5754 114.698 15.8029 114.698 15.8029L115.532 12.4407C115.532 12.4407 114.799 12.0615 113.206 12.0615C111.689 12.0615 110.172 12.4913 109.01 13.4772C107.543 14.7159 106.861 16.5108 106.532 18.3309L106.406 19.0388H104.409L103.777 22.2746H105.774L103.499 34.2572H107.771L110.046 22.2746H113.004L113.61 19.0388Z" fill="black"/>
<path d="M123.924 19.0638C123.924 19.0638 121.245 25.8135 120.057 29.5044H120.006C119.93 28.3162 118.944 19.0638 118.944 19.0638H114.444L117.023 32.993C117.074 33.2964 117.048 33.4986 116.922 33.7008C116.416 34.6615 115.582 35.5968 114.596 36.2794C113.787 36.8608 112.877 37.24 112.169 37.4928L113.357 41.1331C114.217 40.9562 116.037 40.2231 117.554 38.8074C119.5 36.9872 121.321 34.1559 123.166 30.3133L128.399 19.0638H123.924Z" fill="black"/>
</g>
<defs>
<clipPath id="clip0_297_10578">
<rect width="127" height="48" fill="white"/>
</clipPath>
</defs>
</svg>
