<svg width="121" height="48" viewBox="0 0 121 48" fill="none" xmlns="http://www.w3.org/2000/svg">
<g clip-path="url(#clip0_297_10583)">
<path d="M39.9253 32.4265L41.3934 28.995C43.0009 30.1854 45.0975 30.8155 47.1947 30.8155C48.7325 30.8155 49.7109 30.2205 49.7109 29.3103C49.6758 26.7891 40.4496 28.7499 40.3794 22.4113C40.3443 19.1898 43.2104 16.7037 47.2649 16.7037C49.6758 16.7037 52.0878 17.2992 53.8 18.665L52.4281 22.1697C50.8527 21.1567 48.9069 20.4504 47.0549 20.4504C45.7968 20.4504 44.9577 21.0454 44.9577 21.8163C44.9928 24.3024 54.2897 22.9366 54.3945 28.995C54.3945 32.2866 51.5981 34.5978 47.6137 34.5978C44.6785 34.5978 41.9874 33.8976 39.9248 32.4265H39.9253ZM98.3833 27.7524C98.0128 28.4109 97.4737 28.9589 96.8215 29.3403C96.1692 29.7217 95.4273 29.9227 94.6717 29.9228C92.3169 29.9228 90.4082 28.0101 90.4082 25.6508C90.4082 23.2914 92.3169 21.3787 94.6717 21.3787C95.4273 21.3788 96.1692 21.5798 96.8215 21.9612C97.4737 22.3426 98.0128 22.8906 98.3833 23.5491L102.465 21.2835C100.936 18.5513 98.0199 16.7037 94.6717 16.7037C89.74 16.7037 85.7422 20.7091 85.7422 25.6508C85.7422 30.5919 89.74 34.5978 94.6717 34.5978C98.0199 34.5978 100.936 32.7502 102.465 30.018L98.3833 27.7524ZM57.043 34.2474H62.1456V9.25586H57.0435L57.043 34.2474ZM105.042 9.25586V34.2474H110.144V26.76L116.191 34.2474H122.713L115.024 25.3525L122.153 17.0526H115.911L110.144 23.9531V9.25586H105.042ZM77.8658 17.0536V19.0851C77.0272 17.6841 74.9651 16.7037 72.7983 16.7037C68.3248 16.7037 64.7951 20.661 64.7951 25.6332C64.7951 30.6055 68.3248 34.5978 72.7983 34.5978C74.9651 34.5978 77.0272 33.6174 77.8658 32.2164V34.2474H82.9684V17.0536H77.8658ZM77.8658 27.787C77.132 29.0125 75.5942 29.9223 73.882 29.9223C71.5267 29.9223 69.618 28.0101 69.618 25.6508C69.618 23.2914 71.5267 21.3787 73.882 21.3787C75.5942 21.3787 77.132 22.3241 77.8658 23.5842V27.787Z" fill="black"/>
<path d="M12.978 8.70312C11.3245 8.70312 9.98417 10.0464 9.98417 11.703C9.98378 12.0966 10.0609 12.4864 10.2111 12.8501C10.3614 13.2139 10.5818 13.5444 10.8598 13.823C11.1378 14.1016 11.468 14.3227 11.8314 14.4736C12.1949 14.6246 12.5845 14.7025 12.978 14.7029H15.9724V11.703C15.9731 10.9081 15.658 10.1456 15.0965 9.58299C14.5349 9.02041 13.7729 8.70392 12.978 8.70312ZM12.978 16.7028H4.99388C3.3403 16.7028 2 18.0461 2 19.7032C2 21.3598 3.3403 22.7031 4.99388 22.7031H12.9785C14.6316 22.7031 15.9724 21.3598 15.9724 19.7032C15.9724 18.0461 14.6316 16.7028 12.978 16.7028Z" fill="#36C5F0"/>
<path d="M31.9412 19.7032C31.9412 18.0461 30.6004 16.7028 28.9468 16.7028C27.2932 16.7028 25.9529 18.0461 25.9529 19.7032V22.7031H28.9468C29.7417 22.7023 30.5037 22.3858 31.0652 21.8233C31.6268 21.2607 31.9418 20.4981 31.9412 19.7032ZM23.957 19.7032V11.703C23.9577 10.9081 23.6426 10.1456 23.081 9.58299C22.5195 9.02041 21.7575 8.70392 20.9626 8.70312C19.3091 8.70312 17.9688 10.0464 17.9688 11.703V19.7027C17.9688 21.3603 19.3091 22.7036 20.9626 22.7036C21.7575 22.7028 22.5195 22.3863 23.081 21.8238C23.6426 21.2612 23.9577 20.4986 23.957 19.7037" fill="#2EB67D"/>
<path d="M20.9626 38.7031C21.7575 38.7023 22.5195 38.3858 23.081 37.8233C23.6426 37.2607 23.9577 36.4981 23.957 35.7032C23.9577 34.9084 23.6426 34.1458 23.081 33.5832C22.5195 33.0206 21.7575 32.7041 20.9626 32.7033H17.9688V35.7032C17.9688 37.3598 19.3091 38.7031 20.9626 38.7031ZM20.9626 30.7034H28.9473C30.6004 30.7034 31.9412 29.3601 31.9412 27.703C31.9418 26.9081 31.6268 26.1456 31.0652 25.583C30.5037 25.0204 29.7417 24.7039 28.9468 24.7031H20.9626C19.3091 24.7031 17.9688 26.0464 17.9688 27.703C17.9684 28.0966 18.0455 28.4864 18.1957 28.8501C18.346 29.2139 18.5664 29.5444 18.8444 29.823C19.1224 30.1016 19.4526 30.3227 19.816 30.4736C20.1794 30.6246 20.5691 30.7025 20.9626 30.7029" fill="#ECB22E"/>
<path d="M2 27.703C1.99961 28.0966 2.07673 28.4864 2.22697 28.8501C2.37722 29.2139 2.59763 29.5444 2.87564 29.823C3.15365 30.1016 3.4838 30.3227 3.84725 30.4736C4.2107 30.6246 4.60032 30.7025 4.99388 30.7029C5.78875 30.7021 6.55075 30.3856 7.11229 29.823C7.67383 29.2605 7.98892 28.4979 7.98826 27.703V24.7031H4.99388C3.3403 24.7031 2 26.0464 2 27.703ZM9.98417 27.703V35.7027C9.98417 37.3598 11.3245 38.7031 12.9781 38.7031C13.7729 38.7023 14.5349 38.3858 15.0965 37.8233C15.658 37.2607 15.9731 36.4981 15.9724 35.7032V27.703C15.9728 27.3094 15.8957 26.9196 15.7454 26.5558C15.5951 26.192 15.3747 25.8614 15.0966 25.5828C14.8186 25.3043 14.4883 25.0832 14.1248 24.9323C13.7613 24.7813 13.3716 24.7035 12.9781 24.7031C11.3245 24.7031 9.98417 26.0464 9.98417 27.703Z" fill="#E01E5A"/>
</g>
<defs>
<clipPath id="clip0_297_10583">
<rect width="121" height="48" fill="white"/>
</clipPath>
</defs>
</svg>
