<svg width="93" height="14" viewBox="0 0 93 14" fill="none" xmlns="http://www.w3.org/2000/svg">
<path fill-rule="evenodd" clip-rule="evenodd" d="M1.64174 0.647256C1.52653 0.675567 1.30913 0.759817 1.15863 0.834555C0.92758 0.949253 0.844925 1.01072 0.627549 1.2296C0.335606 1.5236 0.217177 1.70745 0.0892348 2.06527C0.00484198 2.3013 0 2.33713 0 2.7278C0 3.11846 0.00484198 3.15429 0.0892348 3.39032C0.216864 3.74726 0.33515 3.93103 0.627634 4.22662C0.855321 4.45672 0.919577 4.50346 1.18304 4.63041C1.3469 4.70939 1.57322 4.79424 1.68595 4.81899C1.97467 4.88233 2.37465 4.87709 2.6513 4.80634C3.23493 4.6571 3.62382 4.37125 3.98871 3.82331C4.16738 3.55501 4.23434 3.47927 4.37732 3.3838C4.67157 3.1873 4.77171 3.16927 5.56816 3.16927C6.36461 3.16927 6.46475 3.1873 6.759 3.3838C6.90198 3.47927 6.96894 3.55501 7.14761 3.82331C7.43189 4.25017 7.68846 4.48142 8.08228 4.6657C9.13673 5.1591 10.4114 4.70318 10.9122 3.65347C11.1934 3.06426 11.1934 2.39134 10.9122 1.80212C10.4114 0.752412 9.13673 0.296497 8.08228 0.789895C7.68897 0.973947 7.43187 1.20545 7.14895 1.63029C6.91135 1.98706 6.77005 2.10891 6.46535 2.21982C6.31528 2.27442 6.22086 2.2835 5.69055 2.29444C4.61873 2.31651 4.39016 2.22691 3.98663 1.6263C3.62154 1.08298 3.23162 0.79767 2.6513 0.649249C2.36368 0.57568 1.93662 0.574854 1.64174 0.647256ZM9.41326 2.7278V3.15503H8.98603H8.55879V2.7278V2.30056H8.98603H9.41326V2.7278ZM5.05548 4.92227C3.73522 5.26317 3.05805 6.70206 3.64196 7.9258C4.14282 8.97551 5.41746 9.43143 6.4719 8.93803C6.86572 8.75375 7.12229 8.5225 7.40657 8.09564C7.58524 7.82734 7.6522 7.7516 7.79518 7.65613C8.08943 7.45963 8.18958 7.4416 8.98603 7.4416C9.78247 7.4416 9.88262 7.45963 10.1769 7.65613C10.3198 7.7516 10.3868 7.82734 10.5655 8.09564C10.9304 8.64358 11.3193 8.92943 11.9029 9.07868C12.1795 9.14943 12.5795 9.15467 12.8682 9.09132C12.981 9.06657 13.2073 8.98172 13.3711 8.90274C13.6346 8.7758 13.6989 8.72906 13.9266 8.49895C14.219 8.20336 14.3373 8.01959 14.465 7.66265C14.5493 7.42662 14.5542 7.39079 14.5542 7.00013C14.5542 6.60947 14.5493 6.57364 14.465 6.3376C14.3369 5.97938 14.2186 5.79587 13.9251 5.5004C13.6968 5.27052 13.631 5.2227 13.3696 5.09678C13.2066 5.01822 12.981 4.93369 12.8682 4.90894C12.5795 4.84559 12.1795 4.85083 11.9029 4.92158C11.32 5.07066 10.9303 5.35679 10.5668 5.90262C10.3292 6.25939 10.1879 6.38124 9.88322 6.49215C9.73314 6.54675 9.63872 6.55584 9.10841 6.56677C8.0366 6.58885 7.80803 6.49924 7.40449 5.89864C7.03941 5.35531 6.64949 5.07 6.06916 4.92158C5.77278 4.84579 5.35058 4.84608 5.05548 4.92227ZM5.99539 7.00013V7.42736H5.56816H5.14093V7.00013V6.5729H5.56816H5.99539V7.00013ZM1.64174 9.19192C1.52653 9.22023 1.30913 9.30448 1.15863 9.37922C0.92758 9.49392 0.844925 9.55538 0.627549 9.77427C0.335606 10.0683 0.217177 10.2521 0.0892348 10.6099C0.00484198 10.846 0 10.8818 0 11.2725C0 11.6631 0.00484198 11.699 0.0892348 11.935C0.216864 12.2919 0.33515 12.4757 0.627634 12.7713C0.855321 13.0014 0.919577 13.0481 1.18304 13.1751C1.3469 13.2541 1.57322 13.3389 1.68595 13.3637C1.97467 13.427 2.37465 13.4218 2.6513 13.351C3.23493 13.2018 3.62382 12.9159 3.98871 12.368C4.16738 12.0997 4.23434 12.0239 4.37732 11.9285C4.67157 11.732 4.77171 11.7139 5.56816 11.7139C6.36461 11.7139 6.46475 11.732 6.759 11.9285C6.90198 12.0239 6.96894 12.0997 7.14761 12.368C7.43189 12.7948 7.68846 13.0261 8.08228 13.2104C9.13673 13.7038 10.4114 13.2478 10.9122 12.1981C11.1934 11.6089 11.1934 10.936 10.9122 10.3468C10.4114 9.29708 9.13673 8.84116 8.08228 9.33456C7.68897 9.51861 7.43187 9.75012 7.14895 10.175C6.91135 10.5317 6.77005 10.6536 6.46535 10.7645C6.31528 10.8191 6.22086 10.8282 5.69055 10.8391C4.61873 10.8612 4.39016 10.7716 3.98663 10.171C3.62154 9.62764 3.23162 9.34234 2.6513 9.19392C2.36368 9.12035 1.93662 9.11952 1.64174 9.19192ZM9.41326 11.2725V11.6997H8.98603H8.55879V11.2725V10.8452H8.98603H9.41326V11.2725Z" fill="white"/>
<path d="M18.2047 2.83418H23.0654V4.2046H19.65V6.06753H22.7228V7.43795H19.65V10.5H18.2047V2.83418ZM28.1217 9.81479H28.0361C27.8719 10.0789 27.6506 10.2894 27.3723 10.4465C27.0939 10.5964 26.7763 10.6713 26.4194 10.6713C25.7556 10.6713 25.2595 10.4679 24.9312 10.061C24.61 9.65419 24.4494 9.11173 24.4494 8.43365V5.25384H25.852V8.26235C25.852 8.64065 25.934 8.92258 26.0982 9.10816C26.2695 9.2866 26.5158 9.37582 26.837 9.37582C27.0297 9.37582 27.1974 9.33656 27.3402 9.25805C27.49 9.1724 27.615 9.06177 27.7149 8.92615C27.8219 8.7834 27.9005 8.61923 27.9504 8.43365C28.0075 8.24094 28.0361 8.03751 28.0361 7.82339V5.25384H29.4386V10.5H28.1217V9.81479ZM31.9684 6.45296H31.0476V5.25384H31.9684V3.64787H33.3709V5.25384H34.6557V6.45296H33.3709V8.48719C33.3709 8.60853 33.3816 8.72273 33.4031 8.82979C33.4316 8.92972 33.4816 9.01537 33.553 9.08675C33.6529 9.20095 33.7956 9.25805 33.9812 9.25805C34.1026 9.25805 34.1989 9.24734 34.2703 9.22593C34.3417 9.19738 34.4095 9.16169 34.4737 9.11887L34.8698 10.3501C34.7057 10.4286 34.5272 10.4857 34.3345 10.5214C34.1489 10.5642 33.942 10.5857 33.7135 10.5857C33.4495 10.5857 33.2103 10.5464 32.9962 10.4679C32.7892 10.3822 32.6144 10.268 32.4716 10.1253C32.1361 9.80408 31.9684 9.34727 31.9684 8.75485V6.45296ZM40.0148 9.81479H39.9292C39.765 10.0789 39.5438 10.2894 39.2654 10.4465C38.987 10.5964 38.6694 10.6713 38.3125 10.6713C37.6487 10.6713 37.1526 10.4679 36.8243 10.061C36.5031 9.65419 36.3425 9.11173 36.3425 8.43365V5.25384H37.7451V8.26235C37.7451 8.64065 37.8272 8.92258 37.9913 9.10816C38.1626 9.2866 38.4089 9.37582 38.7301 9.37582C38.9228 9.37582 39.0905 9.33656 39.2333 9.25805C39.3832 9.1724 39.5081 9.06177 39.608 8.92615C39.7151 8.7834 39.7936 8.61923 39.8435 8.43365C39.9006 8.24094 39.9292 8.03751 39.9292 7.82339V5.25384H41.3317V10.5H40.0148V9.81479ZM43.2311 5.25384H44.548V5.98187H44.6336C44.6979 5.8534 44.7835 5.73563 44.8906 5.62856C44.9976 5.5215 45.1154 5.42871 45.2439 5.35019C45.3795 5.27168 45.5223 5.21101 45.6722 5.16818C45.8292 5.12536 45.9826 5.10395 46.1325 5.10395C46.3181 5.10395 46.4751 5.12179 46.6036 5.15748C46.7392 5.19317 46.8534 5.23956 46.9462 5.29666L46.5715 6.57073C46.4858 6.5279 46.3895 6.49578 46.2824 6.47437C46.1825 6.44582 46.0576 6.43155 45.9077 6.43155C45.715 6.43155 45.5401 6.4708 45.3831 6.54932C45.2261 6.62069 45.0904 6.72419 44.9762 6.8598C44.8692 6.99542 44.7835 7.15602 44.7193 7.34159C44.6622 7.52004 44.6336 7.71632 44.6336 7.93045V10.5H43.2311V5.25384ZM52.9326 9.23664C52.6899 9.6649 52.3616 10.0111 51.9476 10.2752C51.5408 10.5393 51.0411 10.6713 50.4487 10.6713C50.049 10.6713 49.6778 10.6035 49.3352 10.4679C48.9998 10.3251 48.7071 10.1288 48.4573 9.87903C48.2075 9.62921 48.0112 9.33656 47.8684 9.0011C47.7328 8.65849 47.665 8.28376 47.665 7.87692C47.665 7.49862 47.7328 7.14174 47.8684 6.80627C48.0041 6.46367 48.1932 6.16745 48.4359 5.91764C48.6786 5.66068 48.9641 5.45726 49.2924 5.30737C49.6279 5.15748 49.9955 5.08253 50.3952 5.08253C50.8163 5.08253 51.191 5.15391 51.5193 5.29666C51.8477 5.43228 52.1225 5.62499 52.3437 5.87481C52.565 6.11749 52.7327 6.40656 52.8469 6.74203C52.9611 7.0775 53.0182 7.44152 53.0182 7.83409C53.0182 7.88406 53.0182 7.92688 53.0182 7.96257C53.0111 8.0054 53.0075 8.04465 53.0075 8.08034C53.0004 8.11603 52.9968 8.15529 52.9968 8.19811H49.0462C49.0747 8.41224 49.1318 8.59782 49.2175 8.75485C49.3102 8.90474 49.4209 9.03322 49.5494 9.14028C49.685 9.24021 49.8313 9.31515 49.9883 9.36512C50.1453 9.40794 50.3059 9.42935 50.4701 9.42935C50.7913 9.42935 51.0554 9.35798 51.2624 9.21522C51.4765 9.06533 51.6443 8.87976 51.7656 8.65849L52.9326 9.23664ZM51.6585 7.20241C51.6514 7.10962 51.6193 7.00613 51.5622 6.89192C51.5122 6.77772 51.4337 6.67066 51.3266 6.57073C51.2267 6.4708 51.0982 6.38872 50.9412 6.32448C50.7913 6.26024 50.6093 6.22812 50.3952 6.22812C50.0954 6.22812 49.8313 6.31377 49.6029 6.48508C49.3745 6.65638 49.2139 6.89549 49.1211 7.20241H51.6585ZM57.1279 10.6713C56.7996 10.6713 56.4855 10.6249 56.1857 10.5321C55.8859 10.4393 55.6111 10.3001 55.3613 10.1146C55.1115 9.92899 54.8938 9.70415 54.7082 9.44006C54.5227 9.16883 54.3763 8.85477 54.2693 8.49789L55.629 7.96257C55.7289 8.348 55.9038 8.6692 56.1536 8.92615C56.4034 9.17597 56.7318 9.30088 57.1386 9.30088C57.2885 9.30088 57.4312 9.28303 57.5669 9.24734C57.7096 9.20452 57.8345 9.14742 57.9416 9.07604C58.0558 8.99753 58.145 8.90117 58.2092 8.78697C58.2735 8.67276 58.3056 8.54072 58.3056 8.39083C58.3056 8.24807 58.2806 8.1196 58.2307 8.0054C58.1807 7.89119 58.095 7.78413 57.9737 7.6842C57.8595 7.58427 57.706 7.48792 57.5133 7.39513C57.3277 7.30234 57.0958 7.20598 56.8174 7.10605L56.3463 6.93475C56.1393 6.86337 55.9288 6.76701 55.7146 6.64567C55.5076 6.52434 55.3185 6.37801 55.1472 6.20671C54.9759 6.03541 54.8331 5.83555 54.7189 5.60715C54.6119 5.37161 54.5583 5.10751 54.5583 4.81487C54.5583 4.51509 54.6154 4.23672 54.7296 3.97977C54.851 3.71567 55.0187 3.48727 55.2329 3.29455C55.4541 3.0947 55.7146 2.94124 56.0144 2.83418C56.3213 2.71997 56.6604 2.66287 57.0315 2.66287C57.417 2.66287 57.7489 2.7164 58.0272 2.82347C58.3127 2.9234 58.5519 3.05544 58.7446 3.21961C58.9444 3.37664 59.105 3.55151 59.2264 3.74422C59.3477 3.93694 59.4369 4.11895 59.494 4.29025L58.22 4.82558C58.1486 4.61145 58.0165 4.41873 57.8238 4.24743C57.6382 4.07612 57.3813 3.99047 57.0529 3.99047C56.7389 3.99047 56.4784 4.06542 56.2714 4.21531C56.0644 4.35806 55.9609 4.54721 55.9609 4.78275C55.9609 5.01116 56.0608 5.20744 56.2607 5.37161C56.4605 5.52863 56.7781 5.68209 57.2135 5.83198L57.6953 5.99258C58.0023 6.09965 58.2806 6.22455 58.5304 6.36731C58.7874 6.50292 59.0051 6.66709 59.1835 6.8598C59.3691 7.05252 59.5083 7.27379 59.6011 7.5236C59.701 7.76628 59.751 8.04822 59.751 8.36941C59.751 8.76912 59.6689 9.1153 59.5047 9.40794C59.3477 9.69345 59.1443 9.92899 58.8945 10.1146C58.6446 10.3001 58.3627 10.4393 58.0486 10.5321C57.7346 10.6249 57.4277 10.6713 57.1279 10.6713ZM61.4252 5.25384H62.7421V5.88552H62.8278C62.9563 5.66425 63.1561 5.4751 63.4273 5.31807C63.6986 5.16105 64.034 5.08253 64.4338 5.08253C64.7692 5.08253 65.0868 5.15391 65.3866 5.29666C65.6935 5.43228 65.9612 5.62499 66.1896 5.87481C66.4252 6.11749 66.6107 6.41013 66.7463 6.75274C66.882 7.09535 66.9498 7.47007 66.9498 7.87692C66.9498 8.28376 66.882 8.65849 66.7463 9.0011C66.6107 9.3437 66.4252 9.63991 66.1896 9.88973C65.9612 10.1324 65.6935 10.3251 65.3866 10.4679C65.0868 10.6035 64.7692 10.6713 64.4338 10.6713C64.034 10.6713 63.6986 10.5928 63.4273 10.4358C63.1561 10.2787 62.9563 10.0896 62.8278 9.86832H62.7421L62.8278 10.6178V12.8126H61.4252V5.25384ZM64.1447 9.37582C64.3303 9.37582 64.5051 9.34013 64.6693 9.26876C64.8406 9.19738 64.9905 9.09745 65.119 8.96898C65.2474 8.8405 65.3509 8.68347 65.4295 8.49789C65.508 8.31231 65.5472 8.10532 65.5472 7.87692C65.5472 7.64851 65.508 7.44152 65.4295 7.25594C65.3509 7.07036 65.2474 6.91334 65.119 6.78486C64.9905 6.65638 64.8406 6.55645 64.6693 6.48508C64.5051 6.4137 64.3303 6.37801 64.1447 6.37801C63.9591 6.37801 63.7807 6.4137 63.6094 6.48508C63.4452 6.54932 63.2989 6.64567 63.1704 6.77415C63.0419 6.90263 62.9384 7.05966 62.8599 7.24524C62.7814 7.43082 62.7421 7.64138 62.7421 7.87692C62.7421 8.11246 62.7814 8.32302 62.8599 8.5086C62.9384 8.69418 63.0419 8.85121 63.1704 8.97968C63.2989 9.10816 63.4452 9.20809 63.6094 9.27946C63.7807 9.3437 63.9591 9.37582 64.1447 9.37582ZM68.4393 2.83418H69.8418V4.98617L69.7562 5.93905H69.8418C69.9917 5.68923 70.2058 5.48581 70.4842 5.32878C70.7697 5.16461 71.0873 5.08253 71.4371 5.08253C72.1151 5.08253 72.6148 5.28239 72.936 5.68209C73.2643 6.0818 73.4285 6.62783 73.4285 7.32018V10.5H72.0259V7.49149C72.0259 7.12747 71.9403 6.85267 71.769 6.66709C71.5977 6.47437 71.3586 6.37801 71.0516 6.37801C70.8589 6.37801 70.6876 6.42084 70.5377 6.50649C70.3878 6.585 70.2594 6.69564 70.1523 6.83839C70.0524 6.98114 69.9739 7.14888 69.9168 7.34159C69.8668 7.52717 69.8418 7.72703 69.8418 7.94116V10.5H68.4393V2.83418ZM80.2528 9.23664C80.0101 9.6649 79.6818 10.0111 79.2678 10.2752C78.8609 10.5393 78.3613 10.6713 77.7689 10.6713C77.3692 10.6713 76.998 10.6035 76.6554 10.4679C76.3199 10.3251 76.0273 10.1288 75.7775 9.87903C75.5277 9.62921 75.3314 9.33656 75.1886 9.0011C75.053 8.65849 74.9852 8.28376 74.9852 7.87692C74.9852 7.49862 75.053 7.14174 75.1886 6.80627C75.3242 6.46367 75.5134 6.16745 75.7561 5.91764C75.9988 5.66068 76.2843 5.45726 76.6126 5.30737C76.9481 5.15748 77.3156 5.08253 77.7154 5.08253C78.1365 5.08253 78.5112 5.15391 78.8395 5.29666C79.1679 5.43228 79.4427 5.62499 79.6639 5.87481C79.8852 6.11749 80.0529 6.40656 80.1671 6.74203C80.2813 7.0775 80.3384 7.44152 80.3384 7.83409C80.3384 7.88406 80.3384 7.92688 80.3384 7.96257C80.3313 8.0054 80.3277 8.04465 80.3277 8.08034C80.3206 8.11603 80.317 8.15529 80.317 8.19811H76.3663C76.3949 8.41224 76.452 8.59782 76.5376 8.75485C76.6304 8.90474 76.7411 9.03322 76.8695 9.14028C77.0052 9.24021 77.1515 9.31515 77.3085 9.36512C77.4655 9.40794 77.6261 9.42935 77.7903 9.42935C78.1115 9.42935 78.3756 9.35798 78.5826 9.21522C78.7967 9.06533 78.9644 8.87976 79.0858 8.65849L80.2528 9.23664ZM78.9787 7.20241C78.9716 7.10962 78.9395 7.00613 78.8824 6.89192C78.8324 6.77772 78.7539 6.67066 78.6468 6.57073C78.5469 6.4708 78.4184 6.38872 78.2614 6.32448C78.1115 6.26024 77.9295 6.22812 77.7154 6.22812C77.4156 6.22812 77.1515 6.31377 76.9231 6.48508C76.6947 6.65638 76.5341 6.89549 76.4413 7.20241H78.9787ZM81.9321 5.25384H83.249V5.98187H83.3346C83.3989 5.8534 83.4845 5.73563 83.5916 5.62856C83.6986 5.5215 83.8164 5.42871 83.9449 5.35019C84.0805 5.27168 84.2232 5.21101 84.3731 5.16818C84.5302 5.12536 84.6836 5.10395 84.8335 5.10395C85.0191 5.10395 85.1761 5.12179 85.3046 5.15748C85.4402 5.19317 85.5544 5.23956 85.6472 5.29666L85.2725 6.57073C85.1868 6.5279 85.0905 6.49578 84.9834 6.47437C84.8835 6.44582 84.7586 6.43155 84.6087 6.43155C84.416 6.43155 84.2411 6.4708 84.0841 6.54932C83.927 6.62069 83.7914 6.72419 83.6772 6.8598C83.5702 6.99542 83.4845 7.15602 83.4203 7.34159C83.3632 7.52004 83.3346 7.71632 83.3346 7.93045V10.5H81.9321V5.25384ZM91.6336 9.23664C91.3909 9.6649 91.0626 10.0111 90.6486 10.2752C90.2417 10.5393 89.7421 10.6713 89.1497 10.6713C88.75 10.6713 88.3788 10.6035 88.0362 10.4679C87.7007 10.3251 87.4081 10.1288 87.1583 9.87903C86.9085 9.62921 86.7122 9.33656 86.5694 9.0011C86.4338 8.65849 86.366 8.28376 86.366 7.87692C86.366 7.49862 86.4338 7.14174 86.5694 6.80627C86.705 6.46367 86.8942 6.16745 87.1369 5.91764C87.3795 5.66068 87.6651 5.45726 87.9934 5.30737C88.3289 5.15748 88.6964 5.08253 89.0962 5.08253C89.5173 5.08253 89.892 5.15391 90.2203 5.29666C90.5487 5.43228 90.8235 5.62499 91.0447 5.87481C91.266 6.11749 91.4337 6.40656 91.5479 6.74203C91.6621 7.0775 91.7192 7.44152 91.7192 7.83409C91.7192 7.88406 91.7192 7.92688 91.7192 7.96257C91.7121 8.0054 91.7085 8.04465 91.7085 8.08034C91.7014 8.11603 91.6978 8.15529 91.6978 8.19811H87.7471C87.7757 8.41224 87.8328 8.59782 87.9184 8.75485C88.0112 8.90474 88.1219 9.03322 88.2503 9.14028C88.386 9.24021 88.5323 9.31515 88.6893 9.36512C88.8463 9.40794 89.0069 9.42935 89.1711 9.42935C89.4923 9.42935 89.7564 9.35798 89.9634 9.21522C90.1775 9.06533 90.3452 8.87976 90.4666 8.65849L91.6336 9.23664ZM90.3595 7.20241C90.3524 7.10962 90.3203 7.00613 90.2632 6.89192C90.2132 6.77772 90.1347 6.67066 90.0276 6.57073C89.9277 6.4708 89.7992 6.38872 89.6422 6.32448C89.4923 6.26024 89.3103 6.22812 89.0962 6.22812C88.7964 6.22812 88.5323 6.31377 88.3039 6.48508C88.0755 6.65638 87.9149 6.89549 87.8221 7.20241H90.3595Z" fill="white"/>
</svg>
