<svg width="80" height="80" viewBox="0 0 80 80" fill="none" xmlns="http://www.w3.org/2000/svg">
<path d="M38 44V36L43 39.7333L38 44Z" fill="#414449" stroke="#414449" stroke-width="0.833333"/>
<path d="M39.7721 10.871C40.3161 10.871 40.7121 10.779 40.9601 10.595C41.2081 10.411 41.3321 10.151 41.3321 9.81502C41.3321 9.61502 41.2881 9.44302 41.2001 9.29902C41.1201 9.15502 41.0001 9.02702 40.8401 8.91502C40.6881 8.79502 40.5001 8.68702 40.2761 8.59102C40.0521 8.48702 39.7961 8.38702 39.5081 8.29102C39.2201 8.18702 38.9401 8.07502 38.6681 7.95502C38.4041 7.82702 38.1681 7.67102 37.9601 7.48702C37.7601 7.30302 37.5961 7.08302 37.4681 6.82702C37.3481 6.57102 37.2881 6.26302 37.2881 5.90302C37.2881 5.15102 37.5481 4.56302 38.0681 4.13902C38.5881 3.70702 39.2961 3.49102 40.1921 3.49102C40.7121 3.49102 41.1721 3.55102 41.5721 3.67102C41.9801 3.78302 42.3001 3.90702 42.5321 4.04302L42.0641 5.26702C41.7921 5.11502 41.4921 4.99902 41.1641 4.91902C40.8441 4.83902 40.5121 4.79902 40.1681 4.79902C39.7601 4.79902 39.4401 4.88302 39.2081 5.05102C38.9841 5.21902 38.8721 5.45502 38.8721 5.75902C38.8721 5.94302 38.9081 6.10302 38.9801 6.23902C39.0601 6.36702 39.1681 6.48302 39.3041 6.58702C39.4481 6.69102 39.6121 6.78702 39.7961 6.87502C39.9881 6.96302 40.1961 7.04702 40.4201 7.12702C40.8121 7.27102 41.1601 7.41902 41.4641 7.57102C41.7761 7.71502 42.0361 7.89102 42.2441 8.09902C42.4601 8.29902 42.6241 8.53902 42.7361 8.81902C42.8481 9.09102 42.9041 9.42302 42.9041 9.81502C42.9041 10.567 42.6361 11.151 42.1001 11.567C41.5721 11.975 40.7961 12.179 39.7721 12.179C39.4281 12.179 39.1121 12.155 38.8241 12.107C38.5441 12.067 38.2921 12.015 38.0681 11.951C37.8521 11.887 37.6641 11.823 37.5041 11.759C37.3441 11.687 37.2161 11.623 37.1201 11.567L37.5641 10.331C37.7801 10.451 38.0721 10.571 38.4401 10.691C38.8081 10.811 39.2521 10.871 39.7721 10.871Z" fill="#414449"/>
<path d="M48.7701 12.2421L51.9525 4.55915L56.886 6.60268L56.3946 7.78894L52.858 6.32403L52.0727 8.21983L55.2213 9.52401L54.7391 10.6881L51.5906 9.38392L50.6583 11.6345L54.461 13.2096L53.9697 14.3959L48.7701 12.2421Z" fill="#414449"/>
<path d="M58.725 17.7111L64.6053 11.8308L68.3813 15.6067L67.4733 16.5146L64.7665 13.8078L63.3156 15.2588L65.7254 17.6686L64.8344 18.5596L62.4246 16.1498L60.7021 17.8723L63.6125 20.7827L62.7046 21.6907L58.725 17.7111Z" fill="#414449"/>
<path d="M76.316 41.8067V43.3187H68V41.8067H71.684V38.1947H68V36.6827H76.316V38.1947H72.992V41.8067H76.316Z" fill="#414449"/>
<path d="M71.5053 50.6011C71.084 50.4266 70.6783 50.3191 70.288 50.2787C69.9052 50.2414 69.552 50.2683 69.2285 50.3594C68.9093 50.461 68.6251 50.6247 68.3757 50.8504C68.1263 51.0762 67.9282 51.3664 67.7812 51.7212C67.6373 52.0686 67.5737 52.4103 67.5904 52.7462C67.6071 53.0822 67.6939 53.3952 67.8509 53.6854C68.0121 53.986 68.2413 54.2584 68.5384 54.5027C68.8429 54.7501 69.2058 54.961 69.6271 55.1355C70.0484 55.31 70.4505 55.4159 70.8333 55.4533C71.2236 55.4937 71.5783 55.4631 71.8975 55.3615C72.221 55.2704 72.5074 55.1119 72.7568 54.8862C73.0061 54.6604 73.2028 54.3739 73.3467 54.0265C73.4936 53.6717 73.5587 53.3264 73.542 52.9904C73.5253 52.6544 73.4364 52.3362 73.2751 52.0356C73.1108 51.7424 72.8801 51.4736 72.583 51.2293C72.2858 50.985 71.9266 50.7756 71.5053 50.6011ZM69.021 56.5989C68.3632 56.3265 67.8243 55.9864 67.4044 55.5786C66.9814 55.1783 66.6703 54.7377 66.4711 54.2569C66.2763 53.7865 66.1873 53.2907 66.204 52.7694C66.2208 52.2482 66.3348 51.7325 66.546 51.2226C66.7573 50.7126 67.0428 50.2637 67.4026 49.8758C67.7593 49.4954 68.1744 49.2041 68.6478 49.0019C69.1256 48.8101 69.6571 48.7185 70.2423 48.7271C70.8276 48.7358 71.4491 48.8763 72.1069 49.1488C72.7647 49.4212 73.2999 49.7598 73.7124 50.1645C74.1324 50.5722 74.4419 51.0165 74.6411 51.4973C74.8372 51.9855 74.9268 52.4903 74.9101 53.0115C74.8933 53.5328 74.7809 54.0447 74.5727 54.5473C74.3645 55.0499 74.082 55.4914 73.7253 55.8719C73.3686 56.2523 72.9513 56.5384 72.4735 56.7302C71.9927 56.9293 71.4597 57.0246 70.8744 57.016C70.2966 57.0104 69.6788 56.8714 69.021 56.5989Z" fill="#414449"/>
<path d="M65.0927 66.3552C64.6967 66.1403 64.281 65.9168 63.8454 65.6849C63.4155 65.4586 62.9799 65.2323 62.5386 65.0061C62.0974 64.7911 61.6618 64.5761 61.2319 64.3612C60.802 64.1575 60.3947 63.9652 60.01 63.7842C60.2306 64.1745 60.4795 64.5875 60.7567 65.023C61.0396 65.4643 61.3337 65.9168 61.6392 66.3807C61.9503 66.8502 62.2699 67.3225 62.598 67.7977C62.9205 68.2786 63.2429 68.7481 63.5654 69.2063L62.4623 70.3094C61.5968 69.0479 60.7935 67.8034 60.0525 66.5758C59.3171 65.354 58.6524 64.1462 58.0584 62.9526L59.0766 61.9344C60.6606 62.6358 62.335 63.4561 64.0999 64.3951C63.6248 63.5013 63.1863 62.6387 62.7847 61.8071C62.3831 60.9756 62.0012 60.1638 61.6392 59.3718L62.6574 58.3536C63.8567 58.9419 65.0673 59.6038 66.2891 60.3392C67.511 61.0859 68.7527 61.892 70.0142 62.7575L68.8687 63.903C68.4161 63.5862 67.9522 63.2637 67.4771 62.9357C66.9962 62.6132 66.5211 62.2964 66.0515 61.9853C65.582 61.6855 65.1238 61.397 64.6769 61.1198C64.23 60.8426 63.8114 60.5937 63.4211 60.3731C63.6021 60.7691 63.7973 61.1792 64.0066 61.6035C64.2159 62.039 64.4309 62.4746 64.6515 62.9102C64.8777 63.3514 65.1069 63.7842 65.3388 64.2084C65.5651 64.6384 65.7885 65.0485 66.0091 65.4388L65.0927 66.3552Z" fill="#414449"/>
<path d="M40.7563 76.315H39.2443V67.999H40.7563V76.315Z" fill="#414449"/>
<path d="M22.6548 73.2052L23.1554 71.9967L25.5168 72.9749L28.1987 66.5003L29.6067 67.0835L26.9248 73.5581L29.2863 74.5362L28.7857 75.7447L22.6548 73.2052Z" fill="#414449"/>
<path d="M6.04786 53.0957C6.39799 52.8121 6.76354 52.5135 7.1445 52.1998C7.51808 51.8892 7.89381 51.5734 8.27172 51.2524C8.63917 50.927 9.00445 50.6068 9.36758 50.2919C9.72024 49.9726 10.0538 49.6699 10.3682 49.3838C9.92321 49.4383 9.44644 49.5102 8.93795 49.5996C8.42206 49.6921 7.89139 49.7906 7.34594 49.8953C6.7931 50.0031 6.23439 50.1176 5.66983 50.2389C5.10221 50.3528 4.54504 50.471 3.99832 50.5936L3.40133 49.1523C4.898 48.8354 6.35517 48.5696 7.77285 48.3547C9.18315 48.1429 10.5533 47.991 11.8834 47.899L12.4344 49.2294C11.1802 50.4243 9.78164 51.6574 8.23867 52.9286C9.24626 52.8316 10.211 52.7567 11.133 52.7039C12.055 52.651 12.951 52.6089 13.8213 52.5775L14.3723 53.9079C13.3699 54.7907 12.2951 55.6559 11.1481 56.5033C9.99066 57.3464 8.77075 58.1851 7.48839 59.0194L6.86844 57.5227C7.3343 57.2258 7.8097 56.9206 8.29467 56.6072C8.77657 56.2863 9.25108 55.9686 9.7182 55.6539C10.1749 55.3348 10.6168 55.0219 11.0439 54.7151C11.471 54.4083 11.8611 54.1168 12.2143 53.8406C11.7792 53.8563 11.3256 53.8797 10.8535 53.9107C10.371 53.9374 9.88634 53.9693 9.3995 54.0064C8.90526 54.0466 8.41778 54.0927 7.93705 54.1446C7.45326 54.1891 6.98885 54.2386 6.54381 54.2931L6.04786 53.0957Z" fill="#414449"/>
<path d="M7.836 42.4602C8.292 42.4602 8.708 42.4042 9.084 42.2922C9.452 42.1802 9.768 42.0202 10.032 41.8122C10.288 41.5962 10.488 41.3362 10.632 41.0322C10.776 40.7282 10.848 40.3842 10.848 40.0002C10.848 39.6242 10.776 39.2842 10.632 38.9802C10.488 38.6762 10.288 38.4202 10.032 38.2122C9.768 37.9962 9.452 37.8322 9.084 37.7202C8.708 37.6082 8.292 37.5522 7.836 37.5522C7.38 37.5522 6.968 37.6082 6.6 37.7202C6.224 37.8322 5.908 37.9962 5.652 38.2122C5.388 38.4202 5.184 38.6762 5.04 38.9802C4.896 39.2842 4.824 39.6242 4.824 40.0002C4.824 40.3842 4.896 40.7282 5.04 41.0322C5.184 41.3362 5.388 41.5962 5.652 41.8122C5.916 42.0202 6.232 42.1802 6.6 42.2922C6.968 42.4042 7.38 42.4602 7.836 42.4602ZM7.836 35.9682C8.548 35.9682 9.176 36.0762 9.72 36.2922C10.264 36.5002 10.72 36.7882 11.088 37.1562C11.448 37.5162 11.72 37.9402 11.904 38.4282C12.088 38.9162 12.18 39.4362 12.18 39.9882C12.18 40.5402 12.088 41.0642 11.904 41.5602C11.72 42.0482 11.448 42.4762 11.088 42.8442C10.72 43.2042 10.264 43.4922 9.72 43.7082C9.176 43.9242 8.548 44.0322 7.836 44.0322C7.124 44.0322 6.5 43.9242 5.964 43.7082C5.42 43.4922 4.964 43.2002 4.596 42.8322C4.228 42.4562 3.952 42.0242 3.768 41.5362C3.584 41.0482 3.492 40.5322 3.492 39.9882C3.492 39.4442 3.584 38.9282 3.768 38.4402C3.952 37.9522 4.228 37.5282 4.596 37.1682C4.964 36.8002 5.42 36.5082 5.964 36.2922C6.5 36.0762 7.124 35.9682 7.836 35.9682Z" fill="#414449"/>
<path d="M5.31382 26.0098C5.77304 24.9012 6.32683 24.1391 6.97519 23.7236C7.62662 23.3007 8.36992 23.2622 9.20511 23.6082C10.2472 24.0398 10.7403 24.8459 10.6843 26.0263C10.9125 25.9563 11.1853 25.8831 11.5026 25.8067C11.82 25.7304 12.1611 25.6595 12.5259 25.5941C12.8833 25.5257 13.2487 25.4692 13.6222 25.4248C13.9882 25.3772 14.3429 25.3466 14.6863 25.333L14.0388 26.8962C13.7145 26.9264 13.3857 26.9677 13.0523 27.0201C12.7114 27.0694 12.3802 27.1271 12.0585 27.193C11.7324 27.2484 11.4249 27.3115 11.1358 27.3823C10.8393 27.45 10.5733 27.5173 10.3377 27.5843C10.3023 27.6908 10.2692 27.781 10.2386 27.8549C10.208 27.9288 10.1789 27.9991 10.1514 28.0656L9.87124 28.7419L12.7759 29.945L12.1973 31.3419L4.62518 28.2054C4.6921 27.8348 4.79407 27.4528 4.93109 27.0593C5.06072 26.6627 5.1883 26.3129 5.31382 26.0098ZM6.56358 26.4106C6.44112 26.7063 6.33894 26.9843 6.25702 27.2448L8.74041 28.2735L8.99298 27.6637C9.13381 27.3237 9.23932 27.0167 9.30951 26.7427C9.37971 26.4687 9.40197 26.2268 9.3763 26.017C9.3537 25.7999 9.27946 25.6132 9.15359 25.4572C9.02773 25.3012 8.83915 25.1711 8.58785 25.067C8.35134 24.969 8.13341 24.9307 7.93407 24.9521C7.73473 24.9734 7.55181 25.0492 7.38532 25.1794C7.22188 25.3022 7.07423 25.4705 6.94237 25.6843C6.80312 25.895 6.67686 26.1371 6.56358 26.4106Z" fill="#414449"/>
<path d="M21.0888 17.8982C20.7154 17.819 20.3081 17.7512 19.8669 17.6946C19.4257 17.638 18.9816 17.6013 18.5347 17.5843C18.0935 17.5617 17.6551 17.5588 17.2195 17.5758C16.7839 17.5928 16.3794 17.6352 16.0061 17.7031L18.645 20.342L17.5759 21.4112L11.6956 15.5308L12.7647 14.4617L15.1915 16.8885C15.1915 16.5151 15.1887 16.122 15.183 15.709C15.1717 15.2904 15.1576 14.8747 15.1406 14.4617C15.1236 14.0374 15.1038 13.633 15.0812 13.2483C15.0586 12.8636 15.0388 12.5157 15.0218 12.2046L16.3031 10.9233C16.3314 11.325 16.3568 11.7464 16.3794 12.1876C16.4021 12.6289 16.4219 13.0786 16.4388 13.5368C16.4502 13.9894 16.4586 14.4447 16.4643 14.9029C16.4756 15.3555 16.4784 15.7939 16.4728 16.2182C16.8914 16.1616 17.3439 16.1333 17.8304 16.1333C18.3169 16.122 18.8175 16.1361 19.3323 16.1757C19.8414 16.2097 20.3534 16.2691 20.8682 16.3539C21.3829 16.4275 21.8779 16.5208 22.3531 16.6339L21.0888 17.8982Z" fill="#414449"/>
<path d="M28.2601 12.2521C28.7627 12.0439 29.0934 11.8074 29.2521 11.5425C29.4108 11.2776 29.4259 10.9899 29.2973 10.6795C29.2207 10.4947 29.1143 10.3526 28.9779 10.2533C28.8488 10.1509 28.689 10.0785 28.4983 10.0363C28.312 9.98358 28.0969 9.95575 27.8533 9.95278C27.6065 9.94241 27.3317 9.94799 27.0289 9.96951C26.723 9.98364 26.4215 9.98732 26.1243 9.98054C25.8314 9.96332 25.5537 9.9095 25.2911 9.81911C25.0359 9.72565 24.8002 9.58516 24.584 9.39763C24.3751 9.20704 24.2018 8.94544 24.0641 8.61285C23.7763 7.91809 23.7915 7.27535 24.1096 6.68463C24.4247 6.08652 24.9962 5.61602 25.824 5.27314C26.3044 5.07414 26.7523 4.95354 27.1678 4.91133C27.5876 4.85867 27.9307 4.85077 28.1971 4.88764L28.2331 6.19756C27.9237 6.16122 27.6021 6.16886 27.2685 6.22047C26.9422 6.26902 26.6202 6.35911 26.3023 6.49076C25.9254 6.64689 25.6619 6.84695 25.5119 7.09095C25.3692 7.33188 25.356 7.59278 25.4724 7.87364C25.5428 8.04363 25.6373 8.17768 25.7558 8.27577C25.8787 8.36341 26.0229 8.42925 26.1884 8.47329C26.3612 8.51427 26.5494 8.5402 26.7531 8.55109C26.9642 8.55891 27.1885 8.55692 27.4261 8.54511C27.8433 8.52814 28.2215 8.5317 28.5605 8.55579C28.9038 8.56943 29.2114 8.63254 29.4832 8.74511C29.7593 8.84722 30.0026 9.00619 30.2133 9.22202C30.4208 9.43045 30.5996 9.71575 30.7496 10.0779C31.0374 10.7727 31.0133 11.4148 30.6773 12.0042C30.3456 12.5832 29.7067 13.0687 28.7607 13.4605C28.4429 13.5922 28.1417 13.6909 27.8573 13.7568C27.5833 13.827 27.3306 13.8754 27.0992 13.902C26.8751 13.9255 26.6769 13.9383 26.5046 13.9404C26.3292 13.9351 26.1865 13.925 26.0764 13.91L26.0136 12.5982C26.259 12.6264 26.5747 12.6255 26.9607 12.5955C27.3466 12.5656 27.7797 12.4511 28.2601 12.2521Z" fill="#414449"/>
<circle cx="52.4997" cy="70.8322" r="1.66667" fill="#414449"/>
<circle cx="69.9997" cy="25.8322" r="1.66667" fill="#414449"/>
<circle cx="16.6667" cy="64.1657" r="1.66667" fill="#414449"/>
</svg>
